<svg width="248" height="274" viewBox="0 0 248 274" fill="none" xmlns="http://www.w3.org/2000/svg">
<path d="M168.734 225.725H101.134C92.3364 225.725 83.2386 225.109 75.3587 222.649C67.5183 220.202 61.0494 215.985 57.1917 208.865C53.2958 201.673 50.526 191.616 51.5731 177.742C53.0826 157.742 56.1824 144.371 60.845 135.499C65.4285 126.777 71.5435 122.352 79.4657 120.24C87.1663 118.186 94.0025 120.607 101.309 123.907C102.231 124.323 103.163 124.756 104.108 125.194C110.436 128.131 117.291 131.313 124.759 131.313C132.51 131.313 138.135 128.844 143.782 126.366C144.345 126.119 144.908 125.872 145.474 125.627C151.688 122.938 158.565 120.317 169.5 120.317C179.415 120.317 185.772 127.467 190.026 138.795C194.265 150.083 196.05 164.681 197.188 177.768C198.354 191.176 194.119 204.185 189.824 213.503C186.191 221.384 177.829 225.725 168.734 225.725Z" fill="black" stroke="black" stroke-width="4.55"/>
<path fill-rule="evenodd" clip-rule="evenodd" d="M64.0381 126.408C68.8638 120.828 75.0848 117.332 82.7679 117.849C93.2 118.55 99.9922 121.543 105.86 124.129C108.158 125.142 110.315 126.092 112.492 126.818C120.231 129.396 129.843 130.023 150.847 121.807C162.858 117.108 172.293 117.732 179.531 122.2C186.655 126.599 191.189 134.45 194.094 143.227C199.902 160.777 199.637 183.398 199.164 194.84C198.765 204.517 195.014 212.365 190.324 217.809C185.727 223.145 179.936 226.474 175.266 226.474C169.991 226.474 162.718 226.719 154.339 227C147.948 227.215 140.914 227.452 133.633 227.618C116.911 227.999 98.9896 228.004 85.2188 226.461C71.1109 224.879 62.4402 219.396 57.1271 212.985C51.8612 206.63 50.0692 199.574 49.3009 195.118C47.3467 183.782 48.3427 164.295 53.2767 147.84C55.7461 139.605 59.2569 131.938 64.0381 126.408ZM57.4098 149.08C52.6431 164.977 51.7261 183.786 53.5532 194.385C54.2646 198.512 55.8758 204.712 60.4496 210.232C64.9762 215.694 72.5817 220.702 85.6994 222.172C99.1542 223.681 116.819 223.685 133.535 223.304C140.68 223.141 147.671 222.906 154.062 222.692C162.53 222.408 169.945 222.159 175.266 222.159C178.158 222.159 182.861 219.861 187.055 214.993C191.157 210.231 194.496 203.297 194.853 194.662C195.326 183.216 195.533 161.309 189.997 144.583C187.23 136.223 183.138 129.498 177.264 125.872C171.503 122.315 163.568 121.464 152.418 125.825C130.882 134.25 120.17 133.924 111.128 130.911C108.383 129.997 105.94 128.916 103.481 127.828C97.841 125.334 92.1179 122.802 82.4783 122.154C76.4763 121.75 71.4826 124.396 67.3022 129.231C63.0774 134.117 59.7908 141.139 57.4098 149.08Z" fill="black"/>
<path d="M76.6192 178.682C85.735 162.647 104.156 159.549 122.198 166.838C173.094 152.99 180.121 190.223 177.272 210.57H71.8714C69.6558 205.711 67.5034 194.717 76.6192 178.682Z" fill="#DE3D3D"/>
<path d="M79.2732 202.862C71.805 204.996 69.938 213.233 69.938 217.085C76.4726 227.751 181.026 228.64 183.827 218.862C186.067 211.04 179.579 203.201 175.425 202.862C110.079 197.529 88.6083 200.196 79.2732 202.862Z" fill="white"/>
<path d="M71.5808 147.685C65.6043 149.787 62.2424 140.971 61.3086 136.301C64.7327 129.003 76.4368 116.51 95.8607 124.916C115.285 133.323 131.969 131.922 137.883 130.171C172.249 116.159 184.575 128.419 186.443 136.301C186.132 142.139 182.147 152.064 168.7 145.058C151.891 136.301 79.0516 145.058 71.5808 147.685Z" fill="white"/>
<path fill-rule="evenodd" clip-rule="evenodd" d="M40.5261 176.071C41.7065 176.234 42.5315 177.322 42.3687 178.503C41.6229 183.912 41.5361 192.527 43.6902 200.636C45.8463 208.753 50.136 215.999 57.8586 219.382C58.9501 219.86 59.4474 221.132 58.9693 222.223C58.4913 223.315 57.219 223.812 56.1275 223.334C46.7161 219.212 41.8489 210.512 39.5198 201.744C37.1886 192.968 37.288 183.76 38.0942 177.913C38.2569 176.733 39.3458 175.908 40.5261 176.071Z" fill="black"/>
<path fill-rule="evenodd" clip-rule="evenodd" d="M208.133 174.981C206.968 175.232 206.228 176.38 206.479 177.545C207.63 182.883 208.366 191.467 206.829 199.715C205.291 207.971 201.559 215.52 194.114 219.475C193.061 220.034 192.661 221.34 193.22 222.392C193.779 223.445 195.085 223.845 196.138 223.286C205.212 218.466 209.409 209.424 211.071 200.505C212.735 191.579 211.942 182.405 210.697 176.635C210.446 175.47 209.298 174.73 208.133 174.981Z" fill="black"/>
<path d="M167.743 72.6205C193.248 70.3136 200.824 99.432 201.45 114.171C179.379 109.607 148.043 114.293 133.048 117.798C132.111 111.07 135.861 75.5042 167.743 72.6205Z" fill="white"/>
<path fill-rule="evenodd" clip-rule="evenodd" d="M203.51 112.414C207.173 113.264 210.607 114.388 213.679 115.85C214.755 116.362 215.212 117.65 214.7 118.726C214.188 119.801 212.9 120.259 211.825 119.746C208.694 118.257 205.044 117.117 201.013 116.284C179.419 111.818 148.464 116.41 133.54 119.899L131.238 120.437L130.912 118.096C130.635 116.112 130.726 112.388 131.462 107.953C132.206 103.473 133.634 98.105 136.141 92.84C141.176 82.264 150.647 72.0005 167.549 70.4717C181.368 69.2217 190.34 76.5868 195.789 85.9151C200.8 94.4925 202.969 104.892 203.51 112.414ZM199.109 111.538C178.033 107.987 150.278 111.842 135.086 115.129C135.113 113.479 135.289 111.253 135.719 108.659C136.411 104.489 137.738 99.523 140.037 94.695C144.612 85.0851 152.958 76.124 167.937 74.7691C179.622 73.7122 187.192 79.7528 192.063 88.0917C196.398 95.5116 198.467 104.596 199.109 111.538Z" fill="black"/>
<path d="M141.376 109.601C138.669 110.825 138.22 113.408 141.172 113.067C146.272 112.478 155.851 109.821 167.776 109.583C181.277 109.315 191.299 110.018 195.431 109.706C196.951 109.591 197.084 108.237 195.722 107.554C191.408 105.39 180.646 104.354 166.736 104.01C155.207 104.239 146.287 107.38 141.376 109.601Z" fill="#DFECF1"/>
<path d="M152.342 100.539C152.342 107.688 158.138 113.483 165.287 113.483C172.436 113.483 178.232 107.688 178.232 100.539C178.232 93.3892 172.436 87.5936 165.287 87.5936C158.138 87.5936 152.342 93.3892 152.342 100.539Z" fill="black"/>
<path d="M160.972 104.853C160.972 107.236 162.904 109.168 165.287 109.168C167.67 109.168 169.602 107.236 169.602 104.853C169.602 102.47 167.67 100.538 165.287 100.538C162.904 100.538 160.972 102.47 160.972 104.853Z" fill="white"/>
<path fill-rule="evenodd" clip-rule="evenodd" d="M171.858 53.652C145.361 52.8407 132.801 73.6269 129.815 84.0191C129.321 85.7369 130.313 87.5296 132.031 88.0232C133.749 88.5168 135.542 87.5244 136.035 85.8066C138.597 76.8919 149.337 59.438 171.66 60.1215C173.447 60.1761 174.939 58.7723 174.994 56.9858C175.049 55.1993 173.645 53.7067 171.858 53.652Z" fill="black"/>
<path d="M82.585 72.6205C57.0797 70.3136 49.5029 99.432 48.8777 114.171C70.9485 109.607 102.285 114.293 117.28 117.798C118.217 111.07 114.467 75.5042 82.585 72.6205Z" fill="white"/>
<path fill-rule="evenodd" clip-rule="evenodd" d="M46.8181 112.414C43.1547 113.264 39.7202 114.388 36.6488 115.85C35.5729 116.362 35.1158 117.65 35.6279 118.726C36.1399 119.801 37.4272 120.259 38.5031 119.746C41.6337 118.257 45.284 117.117 49.3149 116.284C70.9089 111.818 101.865 116.41 116.789 119.899L119.091 120.437L119.417 118.096C119.693 116.112 119.602 112.388 118.866 107.953C118.123 103.473 116.695 98.105 114.188 92.84C109.152 82.264 99.6817 72.0005 82.7797 70.4717C68.9595 69.2217 59.9882 76.5868 54.5387 85.9151C49.5279 94.4925 47.3584 104.892 46.8181 112.414ZM51.2193 111.538C72.2955 107.987 100.05 111.842 115.242 115.129C115.216 113.479 115.04 111.253 114.61 108.659C113.917 104.489 112.591 99.523 110.292 94.695C105.716 85.0851 97.3705 76.124 82.3909 74.7691C70.7058 73.7122 63.136 79.7528 58.2645 88.0917C53.9298 95.5116 51.8611 104.596 51.2193 111.538Z" fill="black"/>
<path d="M108.952 109.601C111.659 110.825 112.108 113.408 109.156 113.067C104.056 112.478 94.4771 109.821 82.5517 109.583C69.0507 109.315 59.0283 110.018 54.8966 109.706C53.3768 109.591 53.2435 108.237 54.6058 107.554C58.9197 105.39 69.6819 104.354 83.5922 104.01C95.1212 104.239 104.042 107.38 108.952 109.601Z" fill="#DFECF1"/>
<path d="M97.9856 100.539C97.9856 107.688 92.19 113.483 85.0407 113.483C77.8914 113.483 72.0957 107.688 72.0957 100.539C72.0957 93.3892 77.8914 87.5936 85.0407 87.5936C92.19 87.5936 97.9856 93.3892 97.9856 100.539Z" fill="black"/>
<path d="M89.356 104.853C89.356 107.236 87.4242 109.168 85.0411 109.168C82.658 109.168 80.7261 107.236 80.7261 104.853C80.7261 102.47 82.658 100.538 85.0411 100.538C87.4242 100.538 89.356 102.47 89.356 104.853Z" fill="white"/>
<path fill-rule="evenodd" clip-rule="evenodd" d="M78.4693 53.652C104.967 52.8407 117.527 73.6269 120.514 84.0191C121.007 85.7369 120.015 87.5296 118.297 88.0232C116.579 88.5168 114.786 87.5244 114.293 85.8066C111.731 76.8919 100.99 59.438 78.6673 60.1215C76.8808 60.1761 75.3883 58.7723 75.3336 56.9858C75.2789 55.1993 76.6828 53.7067 78.4693 53.652Z" fill="black"/>
</svg>
