<svg width="327" height="360" viewBox="0 0 327 360" fill="none" xmlns="http://www.w3.org/2000/svg">
<path d="M104.822 152.96C114.905 150.088 123.863 153.465 133.509 158.119C134.721 158.704 135.949 159.314 137.194 159.931C145.532 164.067 154.607 168.568 164.5 168.568C174.763 168.568 182.212 165.075 189.651 161.587C190.395 161.238 191.138 160.889 191.884 160.544C200.076 156.756 209.12 153.075 223.5 153.075C236.461 153.075 244.889 163.091 250.545 179.184C256.152 195.138 258.509 215.752 260.01 234.192C261.566 253.309 255.867 271.826 250.158 284.987C245.435 295.875 234.093 302 221.7 302H135.605C123.294 302 110.556 300.984 99.6441 297.325C88.7876 293.684 79.9453 287.507 74.9681 277.262C70.0551 267.149 66.6487 253.183 67.9925 234.16C69.9845 205.959 74.0776 187.063 80.2544 174.505C86.335 162.142 94.4255 155.923 104.822 152.96Z" fill="black" stroke="black" stroke-width="6"/>
<path fill-rule="evenodd" clip-rule="evenodd" d="M84.4294 161.864C90.7929 154 98.9965 149.075 109.128 149.803C122.885 150.792 131.841 155.009 139.579 158.652C142.61 160.079 145.453 161.418 148.325 162.44C158.529 166.073 171.205 166.957 198.902 155.38C214.741 148.76 227.183 149.639 236.727 155.935C246.122 162.132 252.101 173.193 255.931 185.56C263.591 210.286 263.241 242.159 262.618 258.28C262.091 271.913 257.145 282.972 250.96 290.641C244.898 298.16 237.262 302.85 231.103 302.85C224.148 302.85 214.556 303.194 203.507 303.591C195.08 303.894 185.804 304.227 176.203 304.462C154.152 304.999 130.519 305.006 112.36 302.831C93.7561 300.603 82.3222 292.878 75.316 283.845C68.3719 274.891 66.0088 264.95 64.9958 258.671C62.4188 242.699 63.7321 215.243 70.2385 192.06C73.4949 180.457 78.1244 169.654 84.4294 161.864ZM75.6888 193.806C69.4029 216.204 68.1937 242.705 70.6031 257.638C71.5413 263.453 73.666 272.189 79.6972 279.965C85.6665 287.662 95.6957 294.717 112.994 296.789C130.736 298.914 154.03 298.921 176.074 298.384C185.495 298.154 194.714 297.823 203.142 297.521C214.309 297.121 224.087 296.77 231.103 296.77C234.918 296.77 241.119 293.532 246.65 286.673C252.059 279.965 256.462 270.195 256.932 258.029C257.556 241.901 257.829 211.036 250.529 187.47C246.881 175.691 241.484 166.217 233.738 161.108C226.142 156.097 215.678 154.897 200.975 161.042C172.575 172.912 158.449 172.452 146.526 168.208C142.907 166.919 139.685 165.397 136.442 163.864C129.005 160.349 121.458 156.782 108.746 155.869C100.831 155.3 94.2463 159.028 88.7336 165.84C83.1625 172.724 78.8285 182.619 75.6888 193.806Z" fill="black"/>
<path d="M112.184 243.817C121.987 225.409 141.796 221.852 161.196 230.22C215.926 214.322 223.482 257.066 220.419 280.426H107.079C104.697 274.847 102.382 262.226 112.184 243.817Z" fill="#DE3D3D"/>
<path d="M104.519 269.582C94.6712 272.588 92.2092 284.194 92.2092 289.621C100.826 304.65 238.699 305.902 242.393 292.126C245.347 281.105 236.791 270.06 231.313 269.582C145.143 262.068 116.829 265.825 104.519 269.582Z" fill="white"/>
<path d="M94.3749 191.841C86.4937 194.802 82.0605 182.382 80.8291 175.801C85.3444 165.519 100.778 147.917 126.392 159.761C152.006 171.606 174.008 169.632 181.807 167.164C227.124 147.423 243.379 164.697 245.842 175.801C245.431 184.027 240.177 198.01 222.444 188.139C200.279 175.801 104.226 188.139 94.3749 191.841Z" fill="white"/>
<path fill-rule="evenodd" clip-rule="evenodd" d="M53.4242 231.835C54.9807 232.064 56.0686 233.598 55.854 235.261C54.8704 242.883 54.756 255.021 57.5965 266.446C60.4398 277.882 66.0965 288.092 76.2802 292.857C77.7195 293.531 78.3752 295.323 77.7449 296.861C77.1145 298.399 75.4367 299.1 73.9974 298.426C61.5867 292.618 55.1685 280.36 52.0971 268.007C49.023 255.642 49.1541 242.669 50.2172 234.431C50.4318 232.768 51.8676 231.605 53.4242 231.835Z" fill="black"/>
<path fill-rule="evenodd" clip-rule="evenodd" d="M274.445 230.299C272.909 230.653 271.932 232.271 272.263 233.912C273.782 241.433 274.752 253.527 272.725 265.148C270.696 276.781 265.776 287.416 255.957 292.988C254.569 293.776 254.042 295.616 254.779 297.099C255.516 298.582 257.239 299.145 258.626 298.358C270.592 291.567 276.128 278.827 278.319 266.262C280.512 253.684 279.467 240.759 277.825 232.63C277.494 230.989 275.98 229.945 274.445 230.299Z" fill="black"/>
<path d="M221.182 90.104C254.815 87.0619 264.806 125.46 265.631 144.896C236.527 138.877 195.205 145.056 175.431 149.679C174.195 140.806 179.141 93.9067 221.182 90.104Z" fill="white"/>
<path fill-rule="evenodd" clip-rule="evenodd" d="M268.347 142.579C273.178 143.699 277.707 145.183 281.757 147.11C283.176 147.785 283.778 149.483 283.103 150.902C282.428 152.321 280.73 152.923 279.312 152.248C275.184 150.283 270.37 148.781 265.055 147.682C236.579 141.793 195.759 147.848 176.079 152.449L173.044 153.159L172.613 150.072C172.249 147.456 172.369 142.545 173.34 136.696C174.32 130.788 176.203 123.71 179.509 116.767C186.149 102.821 198.638 89.2863 220.926 87.2703C239.15 85.6219 250.98 95.3342 258.166 107.635C264.774 118.946 267.635 132.659 268.347 142.579ZM262.543 141.424C234.751 136.741 198.152 141.825 178.118 146.159C178.154 143.983 178.385 141.048 178.953 137.628C179.866 132.128 181.615 125.58 184.646 119.213C190.68 106.541 201.685 94.724 221.438 92.9373C236.847 91.5436 246.829 99.5092 253.253 110.506C258.969 120.29 261.697 132.269 262.543 141.424Z" fill="black"/>
<path d="M186.449 140.679C182.867 141.685 182.249 143.754 186.144 143.451C192.875 142.927 205.531 140.705 221.257 140.392C239.06 140.038 252.267 140.496 257.718 140.204C259.723 140.096 259.913 139.014 258.124 138.482C252.458 136.797 238.279 136.08 219.943 135.949C204.74 136.252 192.946 138.854 186.449 140.679Z" fill="#DFECF1"/>
<path d="M200.874 121.919C200.874 131.347 208.517 138.989 217.944 138.989C227.372 138.989 235.014 131.347 235.014 121.919C235.014 112.491 227.372 104.849 217.944 104.849C208.517 104.849 200.874 112.491 200.874 121.919Z" fill="black"/>
<path d="M212.254 127.609C212.254 130.751 214.801 133.299 217.944 133.299C221.086 133.299 223.634 130.751 223.634 127.609C223.634 124.466 221.086 121.919 217.944 121.919C214.801 121.919 212.254 124.466 212.254 127.609Z" fill="white"/>
<path fill-rule="evenodd" clip-rule="evenodd" d="M226.609 56.0905C191.668 55.0207 175.105 82.431 171.167 96.135C170.516 98.4003 171.825 100.764 174.09 101.415C176.355 102.066 178.719 100.757 179.37 98.4922C182.748 86.7366 196.911 63.7204 226.348 64.6217C228.704 64.6938 230.672 62.8425 230.744 60.4867C230.817 58.1309 228.965 56.1627 226.609 56.0905Z" fill="black"/>
<path d="M108.886 90.104C75.2531 87.0619 65.2616 125.46 64.4373 144.896C93.5416 138.877 134.864 145.056 154.638 149.679C155.874 140.806 150.928 93.9067 108.886 90.104Z" fill="white"/>
<path fill-rule="evenodd" clip-rule="evenodd" d="M61.7208 142.579C56.89 143.699 52.3611 145.183 48.3108 147.11C46.892 147.785 46.2893 149.483 46.9645 150.902C47.6398 152.321 49.3373 152.923 50.7561 152.248C54.8843 150.283 59.6978 148.781 65.0134 147.682C93.489 141.793 134.31 147.848 153.99 152.449L157.025 153.159L157.455 150.072C157.82 147.456 157.7 142.545 156.729 136.696C155.749 130.788 153.866 123.71 150.56 116.767C143.92 102.821 131.431 89.2863 109.143 87.2703C90.9184 85.6219 79.0881 95.3342 71.9019 107.635C65.2942 118.946 62.4333 132.659 61.7208 142.579ZM67.5246 141.424C95.3175 136.741 131.917 141.825 151.95 146.159C151.915 143.983 151.684 141.048 151.116 137.628C150.203 132.128 148.454 125.58 145.423 119.213C139.389 106.541 128.383 94.724 108.63 92.9373C93.2211 91.5436 83.239 99.5092 76.815 110.506C71.099 120.29 68.3711 132.269 67.5246 141.424Z" fill="black"/>
<path d="M143.639 139.74C147.214 141.061 147.819 143.825 143.925 143.445C137.197 142.79 124.553 139.903 108.827 139.59C91.024 139.236 77.8121 139.938 72.3626 139.583C70.3581 139.453 70.1755 138.006 71.9685 137.282C77.6459 134.992 91.8316 133.937 110.172 133.639C125.375 133.942 137.153 137.343 143.639 139.74Z" fill="#DFECF1"/>
<path d="M129.195 121.919C129.195 131.347 121.552 138.989 112.124 138.989C102.697 138.989 95.0542 131.347 95.0542 121.919C95.0542 112.491 102.697 104.849 112.124 104.849C121.552 104.849 129.195 112.491 129.195 121.919Z" fill="black"/>
<path d="M117.815 127.609C117.815 130.751 115.267 133.299 112.125 133.299C108.982 133.299 106.435 130.751 106.435 127.609C106.435 124.466 108.982 121.919 112.125 121.919C115.267 121.919 117.815 124.466 117.815 127.609Z" fill="white"/>
<path fill-rule="evenodd" clip-rule="evenodd" d="M103.459 55.0905C138.401 54.0207 154.964 81.431 158.902 95.135C159.553 97.4003 158.244 99.7643 155.979 100.415C153.714 101.066 151.35 99.7575 150.699 97.4922C147.321 85.7366 133.157 62.7204 103.72 63.6217C101.364 63.6938 99.3961 61.8425 99.3239 59.4867C99.2518 57.1309 101.103 55.1627 103.459 55.0905Z" fill="black"/>
</svg>
