<svg width="248" height="274" viewBox="0 0 248 274" fill="none" xmlns="http://www.w3.org/2000/svg">
<path d="M116.074 182.194C60.1416 155.62 46.1584 175.819 46.1584 189.241C43.6908 219.842 74.6047 216.084 90.37 210.379C97.0792 207.952 110.111 200.716 139.723 206.353C176.737 213.399 185.991 199.307 184.962 182.194C183.934 165.082 165.427 169.109 148.976 180.181C135.815 189.039 121.558 185.214 116.074 182.194Z" fill="black"/>
<path fill-rule="evenodd" clip-rule="evenodd" d="M61.1125 173.585C52.1597 176.492 49.2427 183.526 49.2427 189.24V189.359L49.2332 189.478C48.6547 196.651 50.0626 201.386 52.3242 204.508C54.5782 207.62 57.963 209.52 62.136 210.485C70.664 212.458 81.6513 210.314 89.3006 207.547C89.9194 207.323 90.6319 207.039 91.4417 206.716C94.6526 205.436 99.3939 203.546 105.898 202.372C114.114 200.889 125.166 200.505 140.311 203.388C158.554 206.861 169.05 204.923 174.811 200.879C180.396 196.958 182.367 190.428 181.883 182.371C181.657 178.616 180.512 176.526 179.172 175.362C177.817 174.185 175.772 173.529 172.869 173.636C166.926 173.855 158.774 177.251 150.723 182.669C136.347 192.346 120.836 188.24 114.647 184.873C86.9339 171.719 70.4156 170.564 61.1125 173.585ZM59.1703 167.853C70.833 164.065 89.25 166.093 117.421 179.477L117.505 179.517L117.587 179.562C122.424 182.226 135.351 185.687 147.228 177.692C155.629 172.038 164.956 167.884 172.636 167.6C176.544 167.456 180.348 168.309 183.266 170.844C186.199 173.392 187.753 177.216 188.041 182.017C188.586 191.073 186.444 200.145 178.406 205.787C170.543 211.306 157.905 212.89 139.134 209.317C124.667 206.563 114.398 206.979 107.017 208.312C101.206 209.361 97.1965 210.953 93.9878 212.228C93.0818 212.588 92.2398 212.922 91.4391 213.212C83.3229 216.148 70.9706 218.735 60.7172 216.363C55.4996 215.156 50.6332 212.614 47.2922 208.002C43.9748 203.423 42.4425 197.19 43.074 189.119C43.1166 181.431 47.2113 171.736 59.1703 167.853Z" fill="black"/>
<path d="M51.2993 207.359C53.3557 214.406 73.9192 217.023 90.3701 211.386C110.934 204.34 60.5529 187.227 51.2993 207.359Z" fill="#FF5757"/>
<path d="M180.85 178.97C122.449 199.543 77.0037 184.516 61.5811 174.431C68.7783 171.406 94.4827 173.675 109.905 181.239C122.244 187.29 134.114 185.887 135.61 185.214C172.624 168.574 180.85 174.936 180.85 178.97Z" fill="white"/>
<path d="M186.943 146.963C157.126 161.055 134.164 134.548 131.422 114.751C148.447 109.912 168.253 94.0336 183.311 79.5202C220.709 98.8471 211.11 135.541 186.943 146.963Z" fill="white"/>
<path fill-rule="evenodd" clip-rule="evenodd" d="M203.296 58.0622C201.98 57.003 200.036 57.1887 198.955 58.4769C194.812 63.4094 188.567 70.2164 181.147 77.3684C173.69 84.5558 165.092 92.0471 156.289 98.3226C147.451 104.623 138.579 109.573 130.562 111.852L128.008 112.577L128.366 115.157C129.847 125.852 136.701 138.143 147.157 145.965C157.782 153.915 172.21 157.28 188.284 149.683C201.34 143.512 210.483 130.528 211.294 116.375C212.064 102.925 205.309 88.8967 188.363 78.8494C194.668 72.6002 199.991 66.7523 203.72 62.3127C204.802 61.0245 204.612 59.1215 203.296 58.0622ZM183.831 83.2448C200.12 92.363 205.778 104.809 205.134 116.037C204.454 127.918 196.712 138.992 185.602 144.244C171.859 150.739 159.898 147.897 150.902 141.166C142.556 134.922 136.837 125.357 134.929 116.824C143.145 114.027 151.719 109.051 159.92 103.205C168.39 97.1666 176.613 90.091 183.831 83.2448Z" fill="black"/>
<path d="M147.223 132.803C150.534 140.486 164.23 149.813 182.541 142.247C200.851 134.682 204.528 118.177 201.216 110.494C197.904 102.811 196.454 124.48 178.143 132.046C159.833 139.611 143.911 125.12 147.223 132.803Z" fill="#DFECF1"/>
<path d="M156.098 106.699C156.098 115.594 163.463 122.804 172.548 122.804C181.634 122.804 188.999 115.594 188.999 106.699C188.999 97.8036 181.634 90.5928 172.548 90.5928C163.463 90.5928 156.098 97.8036 156.098 106.699Z" fill="black"/>
<path d="M166.38 102.672C166.38 104.896 168.221 106.699 170.492 106.699C172.764 106.699 174.605 104.896 174.605 102.672C174.605 100.448 172.764 98.6458 170.492 98.6458C168.221 98.6458 166.38 100.448 166.38 102.672Z" fill="white"/>
<path d="M61.5812 146.963C91.3984 161.055 114.361 134.548 117.103 114.752C100.077 109.912 80.2711 94.0336 65.213 79.5203C27.8138 98.8471 37.4138 135.541 61.5812 146.963Z" fill="white"/>
<path fill-rule="evenodd" clip-rule="evenodd" d="M45.2275 58.0623C46.5434 57.003 48.4872 57.1887 49.5691 58.4769C53.7116 63.4094 59.9563 70.2165 67.3768 77.3684C74.834 84.5559 83.4325 92.0472 92.2356 98.3226C101.073 104.623 109.946 109.573 117.963 111.852L120.516 112.577L120.159 115.157C118.678 125.852 111.823 138.143 101.368 145.965C90.7425 153.915 76.3141 157.28 60.24 149.683C47.1833 143.512 38.0409 130.528 37.2298 116.375C36.4589 102.925 43.2141 88.8967 60.1607 78.8494C53.8555 72.6002 48.5325 66.7523 44.8039 62.3128C43.722 61.0245 43.9116 59.1215 45.2275 58.0623ZM64.6933 83.2448C48.4035 92.3631 42.7457 104.809 43.3891 116.037C44.0701 127.918 51.8113 138.992 62.922 144.244C76.6651 150.739 88.6265 147.897 97.6222 141.166C105.969 134.922 111.688 125.357 113.596 116.824C105.379 114.027 96.8055 109.051 88.6043 103.205C80.1337 97.1667 71.911 90.091 64.6933 83.2448Z" fill="black"/>
<path d="M101.302 132.803C97.99 140.486 84.2939 149.813 65.9831 142.247C47.6723 134.682 43.9954 118.177 47.3072 110.494C50.619 102.811 52.0699 124.48 70.3807 132.046C88.6914 139.611 104.614 125.12 101.302 132.803Z" fill="#DFECF1"/>
<path d="M87.608 118.331C81.3183 124.621 71.0115 124.512 64.587 118.087C58.1626 111.663 58.0533 101.356 64.343 95.0661C70.6327 88.7764 80.9395 88.8857 87.3639 95.3101C93.7884 101.735 93.8977 112.041 87.608 118.331Z" fill="black"/>
<path d="M83.1849 108.214C81.6125 109.786 79.0358 109.759 77.4297 108.153C75.8236 106.547 75.7963 103.97 77.3687 102.397C78.9411 100.825 81.5178 100.852 83.1239 102.458C84.7301 104.065 84.7574 106.641 83.1849 108.214Z" fill="white"/>
</svg>
