<svg width="327" height="360" viewBox="0 0 327 360" fill="none" xmlns="http://www.w3.org/2000/svg">
<path d="M153.049 239.007C79.2911 188.369 60.8517 226.859 60.8517 252.433C57.5977 310.743 98.3633 303.582 119.153 292.713C128 288.087 145.185 274.299 184.233 285.04C233.043 298.467 245.246 271.614 243.89 239.007C242.534 206.399 218.129 214.072 196.436 235.17C179.081 252.05 160.28 244.761 153.049 239.007Z" fill="black"/>
<path fill-rule="evenodd" clip-rule="evenodd" d="M80.5715 222.602C68.7656 228.141 64.919 241.543 64.919 252.433V252.659L64.9064 252.885C64.1436 266.554 66.0001 275.576 68.9826 281.525C71.9548 287.454 76.4182 291.075 81.9212 292.914C93.1669 296.674 107.656 292.588 117.743 287.315C118.559 286.888 119.498 286.347 120.566 285.732C124.8 283.293 131.052 279.692 139.63 277.455C150.463 274.629 165.037 273.898 185.009 279.391C209.066 286.009 222.906 282.315 230.503 274.609C237.869 267.139 240.468 254.695 239.829 239.344C239.532 232.189 238.021 228.206 236.254 225.988C234.467 223.745 231.771 222.494 227.943 222.698C220.106 223.117 209.355 229.587 198.74 239.912C179.781 258.35 159.328 250.527 151.167 244.11C114.622 219.045 92.8394 216.845 80.5715 222.602ZM78.0103 211.678C93.3898 204.461 117.676 208.325 154.824 233.829L154.935 233.905L155.043 233.991C161.421 239.067 178.468 245.662 194.131 230.428C205.209 219.654 217.508 211.739 227.636 211.198C232.789 210.923 237.805 212.549 241.653 217.379C245.521 222.234 247.57 229.52 247.95 238.668C248.668 255.924 245.843 273.211 235.244 283.962C224.876 294.478 208.21 297.497 183.456 290.688C164.38 285.441 150.838 286.233 141.105 288.772C133.443 290.771 128.155 293.806 123.923 296.235C122.729 296.92 121.618 297.558 120.563 298.11C109.86 303.705 93.5712 308.635 80.0503 304.114C73.1699 301.814 66.7527 296.971 62.3469 288.183C57.9723 279.457 55.9517 267.58 56.7844 252.201C56.8407 237.552 62.2403 219.078 78.0103 211.678Z" fill="black"/>
<path d="M67.6309 286.958C70.3425 300.384 97.4593 305.372 119.153 294.63C146.27 281.204 79.8334 248.596 67.6309 286.958Z" fill="#FF5757"/>
<path d="M238.466 232.862C161.455 272.064 101.527 243.431 81.1892 224.214C90.6801 218.449 124.576 222.773 144.914 237.185C161.184 248.715 176.836 246.042 178.81 244.76C227.62 213.052 238.466 225.175 238.466 232.862Z" fill="white"/>
<path d="M246.501 193.138C207.182 211.721 176.902 176.767 173.287 150.661C195.738 144.28 221.855 123.341 241.712 104.203C291.028 129.689 278.369 178.076 246.501 193.138Z" fill="white"/>
<path fill-rule="evenodd" clip-rule="evenodd" d="M268.066 75.9063C266.331 74.5095 263.767 74.7543 262.341 76.4531C256.878 82.9575 248.643 91.9338 238.858 101.365C229.025 110.843 217.686 120.722 206.078 128.997C194.424 137.305 182.725 143.832 172.153 146.837L168.785 147.795L169.256 151.197C171.21 165.299 180.248 181.507 194.036 191.822C208.047 202.305 227.073 206.742 248.269 196.724C265.487 188.587 277.542 171.466 278.612 152.802C279.628 135.066 270.721 116.567 248.374 103.318C256.688 95.0773 263.708 87.3658 268.624 81.5113C270.051 79.8125 269.801 77.3031 268.066 75.9063ZM242.397 109.114C263.878 121.138 271.338 137.551 270.49 152.356C269.592 168.024 259.384 182.627 244.733 189.552C226.61 198.117 210.837 194.369 198.975 185.494C187.969 177.26 180.427 164.647 177.911 153.394C188.746 149.706 200.052 143.145 210.867 135.435C222.036 127.473 232.879 118.142 242.397 109.114Z" fill="black"/>
<path d="M212.208 188.723C221.056 195.313 242.846 196.934 258.769 176.221C274.691 155.508 268.008 134.235 259.16 127.645C250.312 121.055 262.943 146.757 247.02 167.47C231.098 188.183 203.36 182.133 212.208 188.723Z" fill="#DFECF1"/>
<path d="M227.519 161.735C239.249 161.735 248.758 152.023 248.758 140.042C248.758 128.061 239.249 118.349 227.519 118.349C215.79 118.349 206.281 128.061 206.281 140.042C206.281 152.023 215.79 161.735 227.519 161.735Z" fill="black"/>
<path d="M224.733 153.33C229.058 153.33 232.565 149.749 232.565 145.33C232.565 140.912 229.058 137.33 224.733 137.33C220.407 137.33 216.9 140.912 216.9 145.33C216.9 149.749 220.407 153.33 224.733 153.33Z" fill="white"/>
<path d="M81.1892 193.138C120.509 211.721 150.789 176.767 154.404 150.661C131.953 144.28 105.835 123.341 85.9784 104.203C36.6608 129.689 49.3201 178.076 81.1892 193.138Z" fill="white"/>
<path fill-rule="evenodd" clip-rule="evenodd" d="M59.6241 75.9063C61.3593 74.5095 63.9225 74.7544 65.3493 76.4532C70.8119 82.9575 79.0467 91.9338 88.8319 101.365C98.6656 110.843 110.004 120.722 121.613 128.997C133.267 137.305 144.967 143.832 155.539 146.837L158.906 147.795L158.435 151.197C156.482 165.299 147.443 181.507 133.655 191.822C119.644 202.305 100.617 206.743 79.4208 196.724C62.2032 188.587 50.1472 171.466 49.0776 152.802C48.0611 135.066 56.969 116.567 79.3162 103.318C71.0017 95.0773 63.9823 87.3658 59.0655 81.5114C57.6388 79.8126 57.8889 77.3031 59.6241 75.9063ZM85.2933 109.114C63.8122 121.138 56.3514 137.551 57.1999 152.356C58.0978 168.024 68.3061 182.627 82.9575 189.552C101.08 198.117 116.854 194.369 128.716 185.494C139.722 177.26 147.265 164.647 149.78 153.394C138.945 149.706 127.639 143.145 116.824 135.435C105.654 127.473 94.8111 118.142 85.2933 109.114Z" fill="black"/>
<path d="M115.449 188.724C106.601 195.314 84.8105 196.934 68.8879 176.221C52.9654 155.508 59.6488 134.235 68.4967 127.645C77.3446 121.055 64.7138 146.757 80.6363 167.471C96.5589 188.184 124.297 182.134 115.449 188.724Z" fill="#DFECF1"/>
<path d="M100.171 161.736C88.4414 161.736 78.9327 152.023 78.9327 140.042C78.9327 128.061 88.4414 118.349 100.171 118.349C111.901 118.349 121.409 128.061 121.409 140.042C121.409 152.023 111.901 161.736 100.171 161.736Z" fill="black"/>
<path d="M102.958 153.33C98.6323 153.33 95.1257 149.749 95.1257 145.33C95.1257 140.912 98.6323 137.33 102.958 137.33C107.283 137.33 110.79 140.912 110.79 145.33C110.79 149.749 107.283 153.33 102.958 153.33Z" fill="white"/>
</svg>
