<svg width="248" height="274" viewBox="0 0 248 274" fill="none" xmlns="http://www.w3.org/2000/svg">
<path d="M44.7637 199.199C44.7637 199.199 43.9672 224.289 57.1099 227.475C70.2525 230.661 77.8195 226.679 77.8195 226.679" stroke="black" stroke-width="4.55" stroke-linecap="round"/>
<path d="M202.873 199.199C202.873 199.199 203.669 224.255 190.527 227.436C177.385 230.618 169.818 226.641 169.818 226.641" stroke="black" stroke-width="4.55" stroke-linecap="round"/>
<path d="M193.668 204.425C193.668 223.365 162.959 206.384 125.077 206.384C87.1949 206.384 54.5259 223.365 54.5259 204.425C54.5259 185.484 87.1949 149.552 125.077 149.552C162.959 149.552 193.668 185.484 193.668 204.425Z" fill="black"/>
<path d="M149.574 162.29C134.68 147.396 107.766 155.104 95.6807 161.31L99.6002 171.109L146.634 170.129L149.574 162.29Z" fill="white"/>
<path d="M146.634 206.384C125.076 204.424 111.358 206.384 103.519 206.384L100.58 199.525H149.573L146.634 206.384Z" fill="white"/>
<path d="M199.309 145.831C199.309 145.831 198.911 155.788 191.742 156.585C184.574 157.381 177.405 157.381 177.405 157.381" stroke="black" stroke-width="4.55" stroke-linecap="round"/>
<path d="M197.318 79.3216C197.318 79.3216 178.999 49.8501 161.078 45.8675C143.156 41.8849 136.386 58.2136 136.386 58.2136" stroke="black" stroke-width="4.55" stroke-linecap="round"/>
<path d="M133.178 114.276C133.178 132.676 148.094 147.592 166.493 147.592C184.892 147.592 199.808 132.676 199.808 114.276C199.808 95.8765 184.892 80.9605 166.493 80.9605C148.094 80.9605 133.178 95.8765 133.178 114.276Z" fill="white"/>
<path fill-rule="evenodd" clip-rule="evenodd" d="M166.493 143.672C150.258 143.672 137.098 130.511 137.098 114.276C137.098 98.0411 150.258 84.88 166.493 84.88C182.728 84.88 195.888 98.0411 195.888 114.276C195.888 130.511 182.728 143.672 166.493 143.672ZM166.493 147.592C148.094 147.592 133.178 132.676 133.178 114.276C133.178 95.8765 148.094 80.9605 166.493 80.9605C184.892 80.9605 199.808 95.8765 199.808 114.276C199.808 132.676 184.892 147.592 166.493 147.592Z" fill="black"/>
<path d="M141.017 118.256C141.017 126.351 148.767 139.753 166.046 139.753C183.325 139.753 191.969 126.351 191.969 118.256C191.969 110.161 183.325 129.005 166.046 129.005C148.767 129.005 141.017 110.161 141.017 118.256Z" fill="#DFECF1"/>
<path d="M148.856 96.6385C148.856 104.215 154.998 110.357 162.574 110.357C170.15 110.357 176.292 104.215 176.292 96.6385C176.292 89.0621 170.15 82.9203 162.574 82.9203C154.998 82.9203 148.856 89.0621 148.856 96.6385Z" fill="black"/>
<path d="M152.775 94.6786C152.775 96.8433 154.53 98.5981 156.694 98.5981C158.859 98.5981 160.614 96.8433 160.614 94.6786C160.614 92.5139 158.859 90.7591 156.694 90.7591C154.53 90.7591 152.775 92.5139 152.775 94.6786Z" fill="white"/>
<path d="M49.1445 145.831C49.1445 145.831 49.5428 155.788 56.7115 156.585C63.8803 157.381 71.049 157.381 71.049 157.381" stroke="black" stroke-width="4.55" stroke-linecap="round"/>
<path d="M51.1357 79.3216C51.1357 79.3216 69.4558 49.8501 87.3777 45.8675C105.3 41.8849 112.07 58.2136 112.07 58.2136" stroke="black" stroke-width="4.55" stroke-linecap="round"/>
<path d="M115.278 114.276C115.278 132.676 100.362 147.592 81.9622 147.592C63.5624 147.592 48.6465 132.676 48.6465 114.276C48.6465 95.8765 63.5624 80.9605 81.9622 80.9605C100.362 80.9605 115.278 95.8765 115.278 114.276Z" fill="white"/>
<path fill-rule="evenodd" clip-rule="evenodd" d="M81.9622 143.672C98.1972 143.672 111.358 130.511 111.358 114.276C111.358 98.0411 98.1972 84.88 81.9622 84.88C65.7271 84.88 52.566 98.0411 52.566 114.276C52.566 130.511 65.7271 143.672 81.9622 143.672ZM81.9622 147.592C100.362 147.592 115.278 132.676 115.278 114.276C115.278 95.8765 100.362 80.9605 81.9622 80.9605C63.5624 80.9605 48.6465 95.8765 48.6465 114.276C48.6465 132.676 63.5624 147.592 81.9622 147.592Z" fill="black"/>
<path d="M107.439 118.256C107.439 126.351 99.6884 139.753 82.409 139.753C65.1296 139.753 56.4854 126.351 56.4854 118.256C56.4854 110.161 65.1296 129.005 82.409 129.005C99.6884 129.005 107.439 110.161 107.439 118.256Z" fill="#DFECF1"/>
<path d="M99.5995 96.6385C99.5995 104.215 93.4577 110.357 85.8813 110.357C78.3049 110.357 72.1631 104.215 72.1631 96.6385C72.1631 89.0621 78.3049 82.9203 85.8813 82.9203C93.4577 82.9203 99.5995 89.0621 99.5995 96.6385Z" fill="black"/>
<path d="M95.6803 94.6786C95.6803 96.8433 93.9255 98.5981 91.7608 98.5981C89.5961 98.5981 87.8413 96.8433 87.8413 94.6786C87.8413 92.5139 89.5961 90.7591 91.7608 90.7591C93.9255 90.7591 95.6803 92.5139 95.6803 94.6786Z" fill="white"/>
</svg>
