<svg width="327" height="360" viewBox="0 0 327 360" fill="none" xmlns="http://www.w3.org/2000/svg">
<path d="M74.0901 258.829C74.0901 258.829 73.1909 296.668 88.0284 301.473C102.866 306.278 111.409 300.272 111.409 300.272" stroke="black" stroke-width="6" stroke-linecap="round"/>
<path d="M252.589 258.829C252.589 258.829 253.488 296.616 238.651 301.414C223.814 306.213 215.272 300.215 215.272 300.215" stroke="black" stroke-width="6" stroke-linecap="round"/>
<path d="M242.197 266.71C242.197 295.275 207.527 269.666 164.76 269.666C121.993 269.666 85.1108 295.275 85.1108 266.71C85.1108 238.145 121.993 183.956 164.76 183.956C207.527 183.956 242.197 238.145 242.197 266.71Z" fill="black"/>
<path d="M192.416 203.167C175.601 180.705 145.216 192.33 131.573 201.689L135.998 216.466L189.097 214.989L192.416 203.167Z" fill="white"/>
<path d="M189.097 269.665C164.76 266.71 149.273 269.665 140.423 269.665L137.104 259.321H192.416L189.097 269.665Z" fill="white"/>
<path d="M259.759 170.974C259.759 170.974 262.687 183.13 257.414 185.579C252.14 188.027 246.608 189.509 246.608 189.509" stroke="black" stroke-width="6" stroke-linecap="round"/>
<path d="M255.604 102.79C255.604 102.79 235.611 65.7863 216.052 60.7858C196.493 55.7853 189.104 76.2873 189.104 76.2873" stroke="black" stroke-width="6" stroke-linecap="round"/>
<path d="M175.079 139.67C175.079 162.77 193.805 181.496 216.904 181.496C240.004 181.496 258.729 162.77 258.729 139.67C258.729 116.57 240.004 97.8433 216.904 97.8433C193.805 97.8433 175.079 116.57 175.079 139.67Z" fill="white"/>
<path fill-rule="evenodd" clip-rule="evenodd" d="M216.904 176.575C196.523 176.575 180 160.052 180 139.67C180 119.287 196.523 102.764 216.904 102.764C237.286 102.764 253.809 119.287 253.809 139.67C253.809 160.052 237.286 176.575 216.904 176.575ZM216.904 181.496C193.805 181.496 175.079 162.77 175.079 139.67C175.079 116.57 193.805 97.8433 216.904 97.8433C240.004 97.8433 258.729 116.57 258.729 139.67C258.729 162.77 240.004 181.496 216.904 181.496Z" fill="black"/>
<path d="M184.921 144.666C184.921 154.829 194.65 171.654 216.343 171.654C238.036 171.654 248.888 154.829 248.888 144.666C248.888 134.504 238.036 158.16 216.343 158.16C194.65 158.16 184.921 134.504 184.921 144.666Z" fill="#DFECF1"/>
<path d="M192.484 137.526C192.484 146.087 199.424 153.027 207.984 153.027C216.544 153.027 223.484 146.087 223.484 137.526C223.484 128.966 216.544 122.026 207.984 122.026C199.424 122.026 192.484 128.966 192.484 137.526Z" fill="black"/>
<path d="M196.912 139.812C196.912 142.258 198.895 144.24 201.341 144.24C203.787 144.24 205.77 142.258 205.77 139.812C205.77 137.366 203.787 135.383 201.341 135.383C198.895 135.383 196.912 137.366 196.912 139.812Z" fill="white"/>
<path d="M65.2637 174.115C65.2637 174.115 64.4912 186.595 70.1095 188.09C75.7278 189.586 81.4333 190.085 81.4333 190.085" stroke="black" stroke-width="6" stroke-linecap="round"/>
<path d="M72.0796 102.786C72.0796 102.786 92.0731 65.7857 111.632 60.7857C131.191 55.7857 138.58 76.2857 138.58 76.2857" stroke="black" stroke-width="6" stroke-linecap="round"/>
<path d="M152.607 139.67C152.607 162.77 133.88 181.496 110.78 181.496C87.6803 181.496 68.9541 162.77 68.9541 139.67C68.9541 116.57 87.6803 97.8433 110.78 97.8433C133.88 97.8433 152.607 116.57 152.607 139.67Z" fill="white"/>
<path fill-rule="evenodd" clip-rule="evenodd" d="M110.78 176.575C131.163 176.575 147.686 160.052 147.686 139.67C147.686 119.287 131.163 102.764 110.78 102.764C90.398 102.764 73.8748 119.287 73.8748 139.67C73.8748 160.052 90.398 176.575 110.78 176.575ZM110.78 181.496C133.88 181.496 152.607 162.77 152.607 139.67C152.607 116.57 133.88 97.8433 110.78 97.8433C87.6803 97.8433 68.9541 116.57 68.9541 139.67C68.9541 162.77 87.6803 181.496 110.78 181.496Z" fill="black"/>
<path d="M142.765 144.666C142.765 154.829 133.035 171.654 111.342 171.654C89.6481 171.654 78.7957 154.829 78.7957 144.666C78.7957 134.504 89.6481 158.16 111.342 158.16C133.035 158.16 142.765 134.504 142.765 144.666Z" fill="#DFECF1"/>
<path d="M135.201 137.526C135.201 146.087 128.262 153.027 119.701 153.027C111.141 153.027 104.201 146.087 104.201 137.526C104.201 128.966 111.141 122.026 119.701 122.026C128.262 122.026 135.201 128.966 135.201 137.526Z" fill="black"/>
<path d="M130.773 139.812C130.773 142.258 128.79 144.24 126.344 144.24C123.898 144.24 121.916 142.258 121.916 139.812C121.916 137.366 123.898 135.383 126.344 135.383C128.79 135.383 130.773 137.366 130.773 139.812Z" fill="white"/>
</svg>
