<svg width="248" height="274" viewBox="0 0 248 274" fill="none" xmlns="http://www.w3.org/2000/svg">
<path fill-rule="evenodd" clip-rule="evenodd" d="M49.7724 118.664C50.7762 117.913 52.1981 118.119 52.9484 119.122C56.8559 124.349 64.0027 130.754 72.6351 133.138C81.0472 135.46 91.1961 134.066 101.684 123.157C102.552 122.254 103.989 122.225 104.892 123.094C105.796 123.962 105.824 125.398 104.956 126.302C93.3863 138.336 81.5438 140.305 71.4271 137.512C61.5309 134.779 53.6119 127.589 49.3136 121.839C48.5633 120.836 48.7687 119.414 49.7724 118.664Z" fill="black"/>
<path fill-rule="evenodd" clip-rule="evenodd" d="M197.802 121.005C196.839 120.204 195.408 120.336 194.607 121.299C190.624 126.091 182.676 131.696 173.012 133.502C163.482 135.282 152.185 133.393 141.175 123.094C140.26 122.238 138.824 122.286 137.968 123.201C137.112 124.116 137.16 125.552 138.075 126.408C150.168 137.72 162.937 140 173.846 137.962C184.621 135.949 193.485 129.747 198.097 124.2C198.898 123.236 198.766 121.806 197.802 121.005Z" fill="black"/>
<path d="M207.697 125.018C137.256 223.836 64.9471 166.192 37.5978 125.018C36.2637 167.866 50.8402 247.536 120.646 247.536C194.69 247.536 207.697 163.849 207.697 125.018Z" fill="white"/>
<path fill-rule="evenodd" clip-rule="evenodd" d="M35.5512 117.836L39.488 123.763C53.0022 144.109 77.4975 168.289 107.013 175.308C121.702 178.801 137.678 178.06 154.302 170.435C170.958 162.795 188.399 148.181 205.849 123.701L209.966 117.926V125.018C209.966 144.608 206.696 175.622 193.979 201.829C181.206 228.153 158.769 249.805 120.646 249.805C84.638 249.805 62.8689 229.153 50.4011 203.331C37.9862 177.62 34.6559 146.592 35.3298 124.948L35.5512 117.836ZM39.7944 132.091C39.9976 152.616 43.7627 179.146 54.4879 201.359C66.4263 226.084 86.8485 245.267 120.646 245.267C156.566 245.267 177.655 225.075 189.897 199.848C200.771 177.437 204.558 151.194 205.289 132.116C188.904 153.649 172.361 167.144 156.194 174.559C138.593 182.632 121.575 183.435 105.963 179.722C77.7239 173.007 54.232 151.574 39.7944 132.091Z" fill="black"/>
<path fill-rule="evenodd" clip-rule="evenodd" d="M30.1512 116.333C28.6487 120.857 28.3015 127.201 28.4854 131.733C28.5362 132.985 27.5623 134.041 26.3102 134.092C25.058 134.143 24.0018 133.169 23.951 131.917C23.7583 127.169 24.0889 120.189 25.8442 114.903C26.7111 112.293 28.0452 109.721 30.1916 108.199C32.5514 106.527 35.4287 106.432 38.4988 107.905C39.6285 108.448 40.1047 109.803 39.5624 110.933C39.02 112.062 37.6645 112.538 36.5348 111.996C34.6335 111.083 33.5657 111.37 32.816 111.901C31.853 112.584 30.9132 114.038 30.1512 116.333Z" fill="black"/>
<path fill-rule="evenodd" clip-rule="evenodd" d="M217.658 116.201C218.877 120.791 219.155 127.196 219.007 131.752C218.966 133.004 219.948 134.052 221.201 134.093C222.453 134.134 223.502 133.151 223.542 131.899C223.696 127.175 223.431 120.256 222.044 115.036C221.369 112.496 220.321 109.921 218.551 108.352C217.604 107.514 216.42 106.937 215.023 106.874C213.658 106.812 212.326 107.251 211.068 108.006C209.994 108.65 209.645 110.044 210.29 111.119C210.935 112.193 212.329 112.541 213.403 111.897C214.134 111.458 214.585 111.396 214.817 111.407C215.018 111.416 215.244 111.485 215.541 111.749C216.258 112.384 217.03 113.836 217.658 116.201Z" fill="black"/>
<path fill-rule="evenodd" clip-rule="evenodd" d="M60.2078 164.723C60.8344 164.723 61.3423 165.231 61.3423 165.858V199.89C61.3423 200.517 60.8344 201.025 60.2078 201.025C59.5812 201.025 59.0732 200.517 59.0732 199.89V165.858C59.0732 165.231 59.5812 164.723 60.2078 164.723Z" fill="black"/>
<path fill-rule="evenodd" clip-rule="evenodd" d="M187.276 164.723C186.649 164.723 186.141 165.231 186.141 165.858V199.89C186.141 200.517 186.649 201.025 187.276 201.025C187.902 201.025 188.41 200.517 188.41 199.89V165.858C188.41 165.231 187.902 164.723 187.276 164.723Z" fill="black"/>
<path fill-rule="evenodd" clip-rule="evenodd" d="M89.7053 180.605C90.3319 180.605 90.8399 181.113 90.8399 181.739V229.385C90.8399 230.012 90.3319 230.52 89.7053 230.52C89.0788 230.52 88.5708 230.012 88.5708 229.385V181.739C88.5708 181.113 89.0788 180.605 89.7053 180.605Z" fill="black"/>
<path fill-rule="evenodd" clip-rule="evenodd" d="M157.778 180.605C157.151 180.605 156.643 181.113 156.643 181.739V229.385C156.643 230.012 157.151 230.52 157.778 230.52C158.404 230.52 158.912 230.012 158.912 229.385V181.739C158.912 181.113 158.404 180.605 157.778 180.605Z" fill="black"/>
<path fill-rule="evenodd" clip-rule="evenodd" d="M123.741 185.143C124.368 185.143 124.876 185.651 124.876 186.277V238.461C124.876 239.087 124.368 239.595 123.741 239.595C123.115 239.595 122.607 239.087 122.607 238.461V186.277C122.607 185.651 123.115 185.143 123.741 185.143Z" fill="black"/>
<path fill-rule="evenodd" clip-rule="evenodd" d="M48.2162 174C48.7313 173.643 49.4381 173.772 49.7949 174.287C60.8115 190.192 80.1672 209.412 104.939 215.185C129.581 220.928 159.939 213.438 193.227 175.221C193.639 174.749 194.356 174.699 194.828 175.111C195.301 175.522 195.35 176.239 194.939 176.711C161.264 215.37 130.105 223.379 104.424 217.394C78.8726 211.44 59.0994 191.705 47.9295 175.579C47.5727 175.064 47.7011 174.357 48.2162 174Z" fill="black"/>
<path d="M199.339 108.531C181.567 131.927 113.439 120.737 131.211 76.9974C137.423 61.7088 148.636 51.5595 160.832 45.0055C192.428 43.5299 217.432 84.7137 199.339 108.531Z" fill="white"/>
<path d="M135.087 95.0088C135.087 102.037 145.096 113.674 167.412 113.674C189.727 113.674 200.891 102.037 200.891 95.0088C200.891 87.9803 189.727 104.342 167.412 104.342C145.096 104.342 135.087 87.9803 135.087 95.0088Z" fill="#DFECF1"/>
<path d="M144.164 96.6577C144.164 103.549 149.751 109.136 156.644 109.136C163.536 109.136 169.124 103.549 169.124 96.6577C169.124 89.7659 163.536 84.179 156.644 84.179C149.751 84.179 144.164 89.7659 144.164 96.6577Z" fill="black"/>
<path d="M150.971 98.9267C150.971 100.806 152.494 102.33 154.374 102.33C156.254 102.33 157.778 100.806 157.778 98.9267C157.778 97.0471 156.254 95.5234 154.374 95.5234C152.494 95.5234 150.971 97.0471 150.971 98.9267Z" fill="white"/>
<path fill-rule="evenodd" clip-rule="evenodd" d="M169.624 43.3733C182.654 38.0444 195.838 36.3886 204.234 36.543C205.487 36.5661 206.521 35.5691 206.544 34.3163C206.568 33.0635 205.571 32.0292 204.318 32.0061C193.627 31.8094 175.879 34.3431 159.758 43.007C147.209 49.7505 135.563 60.2584 129.109 76.1433C124.443 87.6257 125.32 97.298 129.921 104.848C134.463 112.3 142.418 117.33 151.267 120.105C160.134 122.885 170.133 123.48 179.101 121.857C188.033 120.241 196.238 116.364 201.146 109.903C210.947 97.0007 208.892 79.6814 200.659 66.1068C193.902 54.9666 182.713 45.8636 169.624 43.3733ZM161.448 47.2519C176 46.7979 189.234 56.0217 196.778 68.4599C204.423 81.0626 205.823 96.2437 197.532 107.158C193.554 112.395 186.578 115.893 178.293 117.392C170.044 118.885 160.789 118.335 152.624 115.775C144.441 113.209 137.586 108.704 133.796 102.487C130.067 96.3678 129.092 88.239 133.313 77.8513C139.206 63.3485 149.786 53.6218 161.448 47.2519Z" fill="black"/>
<path d="M50.5928 108.531C68.888 131.927 139.02 120.737 120.725 76.9974C114.33 61.7088 102.787 51.5595 90.2325 45.0055C57.7076 43.5299 31.968 84.7137 50.5928 108.531Z" fill="white"/>
<path d="M114.665 95.0088C114.665 102.037 104.656 113.674 82.3411 113.674C60.0258 113.674 48.8623 102.037 48.8623 95.0088C48.8623 87.9803 60.0258 104.342 82.3411 104.342C104.656 104.342 114.665 87.9803 114.665 95.0088Z" fill="#DFECF1"/>
<path d="M105.589 96.6577C105.589 103.549 100.002 109.136 93.1093 109.136C86.2168 109.136 80.6294 103.549 80.6294 96.6577C80.6294 89.7659 86.2168 84.179 93.1093 84.179C100.002 84.179 105.589 89.7659 105.589 96.6577Z" fill="black"/>
<path d="M101.051 98.9267C101.051 100.806 99.527 102.33 97.6473 102.33C95.7675 102.33 94.2437 100.806 94.2437 98.9267C94.2437 97.0471 95.7675 95.5234 97.6473 95.5234C99.527 95.5234 101.051 97.0471 101.051 98.9267Z" fill="white"/>
<path fill-rule="evenodd" clip-rule="evenodd" d="M81.2032 43.3719C67.7831 38.0447 54.2047 36.3884 45.5512 36.5431C44.2982 36.5654 43.2643 35.568 43.2419 34.3151C43.2196 33.0623 44.2171 32.0285 45.4701 32.0061C56.4555 31.8098 74.7044 34.3395 91.2826 42.9942C104.182 49.7286 116.17 60.2292 122.818 76.1219C127.626 87.6182 126.723 97.3121 121.98 104.873C117.305 112.323 109.127 117.343 100.041 120.11C90.9315 122.885 80.6603 123.478 71.449 121.859C62.2787 120.247 53.8514 116.381 48.8052 109.928C38.7045 97.0117 40.8267 79.663 49.3067 66.0818C56.267 54.9343 67.7715 45.8558 81.2032 43.3719ZM89.6312 47.2529C74.5759 46.7838 60.9213 56.0485 53.1562 68.4849C45.2913 81.0809 43.8561 96.2327 52.3802 107.133C56.4816 112.378 63.6815 115.887 72.2347 117.39C80.7469 118.886 90.2957 118.335 98.7188 115.77C107.166 113.197 114.234 108.68 118.135 102.462C121.968 96.3537 122.97 88.2464 118.631 77.8727C112.564 63.3685 101.663 53.6316 89.6312 47.2529Z" fill="black"/>
</svg>
