<svg width="327" height="360" viewBox="0 0 327 360" fill="none" xmlns="http://www.w3.org/2000/svg">
<path fill-rule="evenodd" clip-rule="evenodd" d="M55.8747 152.888C57.3305 151.799 59.3929 152.097 60.4812 153.553C66.1486 161.135 76.5144 170.426 89.0349 173.883C101.236 177.253 115.956 175.23 131.167 159.406C132.427 158.096 134.51 158.054 135.821 159.314C137.131 160.574 137.172 162.657 135.913 163.967C119.132 181.423 101.956 184.28 87.2828 180.228C72.9293 176.264 61.4435 165.834 55.2093 157.494C54.121 156.038 54.4189 153.976 55.8747 152.888Z" fill="black"/>
<path fill-rule="evenodd" clip-rule="evenodd" d="M270.578 156.284C269.18 155.122 267.105 155.313 265.943 156.711C260.166 163.661 248.638 171.792 234.622 174.411C220.8 176.994 204.414 174.254 188.446 159.314C187.118 158.072 185.036 158.142 183.794 159.469C182.552 160.796 182.621 162.879 183.949 164.121C201.489 180.531 220.009 183.838 235.831 180.881C251.46 177.961 264.316 168.965 271.005 160.918C272.167 159.521 271.975 157.446 270.578 156.284Z" fill="black"/>
<path d="M284.929 162.106C182.761 305.446 77.884 221.831 38.2164 162.106C36.2814 224.259 57.4233 339.824 158.67 339.824C266.063 339.824 284.929 218.432 284.929 162.106Z" fill="white"/>
<path fill-rule="evenodd" clip-rule="evenodd" d="M35.2483 151.688L40.9581 160.285C60.5593 189.797 96.0874 224.872 138.897 235.053C160.201 240.12 183.374 239.045 207.484 227.985C231.642 216.903 256.94 195.704 282.249 160.195L288.22 151.818V162.106C288.22 190.521 283.477 235.509 265.033 273.523C246.506 311.708 213.964 343.115 158.671 343.115C106.444 343.115 74.87 313.158 56.7866 275.703C38.7801 238.406 33.9497 193.4 34.9272 162.003L35.2483 151.688ZM41.4026 172.364C41.6973 202.138 47.1582 240.621 62.7141 272.841C80.0296 308.706 109.65 336.533 158.671 336.533C210.769 336.533 241.357 307.243 259.111 270.65C274.884 238.141 280.377 200.075 281.437 172.401C257.672 203.636 233.678 223.211 210.229 233.967C184.701 245.677 160.018 246.842 137.374 241.457C96.4157 231.716 62.3429 200.626 41.4026 172.364Z" fill="black"/>
<path fill-rule="evenodd" clip-rule="evenodd" d="M27.4156 149.507C25.2365 156.07 24.7328 165.272 24.9995 171.845C25.0732 173.661 23.6607 175.193 21.8446 175.267C20.0285 175.341 18.4965 173.928 18.4228 172.112C18.1433 165.225 18.6229 155.101 21.1688 147.433C22.4261 143.647 24.3611 139.915 27.4742 137.709C30.8969 135.282 35.0701 135.145 39.523 137.282C41.1616 138.069 41.8522 140.035 41.0656 141.674C40.279 143.312 38.313 144.003 36.6744 143.216C33.9168 141.892 32.368 142.308 31.2807 143.079C29.8839 144.069 28.5209 146.179 27.4156 149.507Z" fill="black"/>
<path fill-rule="evenodd" clip-rule="evenodd" d="M299.376 149.316C301.144 155.974 301.547 165.264 301.332 171.873C301.273 173.689 302.698 175.21 304.515 175.269C306.331 175.328 307.852 173.903 307.911 172.086C308.133 165.234 307.749 155.198 305.737 147.626C304.759 143.941 303.239 140.206 300.671 137.931C299.298 136.715 297.58 135.878 295.554 135.786C293.574 135.696 291.643 136.333 289.818 137.428C288.26 138.363 287.754 140.385 288.689 141.943C289.625 143.502 291.646 144.007 293.205 143.072C294.264 142.436 294.919 142.346 295.256 142.361C295.547 142.375 295.875 142.475 296.306 142.857C297.346 143.779 298.465 145.885 299.376 149.316Z" fill="black"/>
<path fill-rule="evenodd" clip-rule="evenodd" d="M71.0096 219.7C71.9184 219.7 72.6551 220.436 72.6551 221.345V270.711C72.6551 271.62 71.9184 272.357 71.0096 272.357C70.1007 272.357 69.364 271.62 69.364 270.711V221.345C69.364 220.436 70.1007 219.7 71.0096 219.7Z" fill="black"/>
<path fill-rule="evenodd" clip-rule="evenodd" d="M255.31 219.7C254.401 219.7 253.664 220.436 253.664 221.345V270.711C253.664 271.62 254.401 272.357 255.31 272.357C256.218 272.357 256.955 271.62 256.955 270.711V221.345C256.955 220.436 256.218 219.7 255.31 219.7Z" fill="black"/>
<path fill-rule="evenodd" clip-rule="evenodd" d="M113.793 242.737C114.702 242.737 115.439 243.473 115.439 244.382V313.495C115.439 314.404 114.702 315.14 113.793 315.14C112.885 315.14 112.148 314.404 112.148 313.495V244.382C112.148 243.473 112.885 242.737 113.793 242.737Z" fill="black"/>
<path fill-rule="evenodd" clip-rule="evenodd" d="M212.526 242.737C211.617 242.737 210.88 243.473 210.88 244.382V313.495C210.88 314.404 211.617 315.14 212.526 315.14C213.434 315.14 214.171 314.404 214.171 313.495V244.382C214.171 243.473 213.434 242.737 212.526 242.737Z" fill="black"/>
<path fill-rule="evenodd" clip-rule="evenodd" d="M163.16 249.319C164.068 249.319 164.805 250.056 164.805 250.965V326.659C164.805 327.568 164.068 328.305 163.16 328.305C162.251 328.305 161.514 327.568 161.514 326.659V250.965C161.514 250.056 162.251 249.319 163.16 249.319Z" fill="black"/>
<path fill-rule="evenodd" clip-rule="evenodd" d="M53.6172 233.156C54.3644 232.639 55.3895 232.825 55.9069 233.572C71.8854 256.643 99.9591 284.523 135.888 292.897C171.629 301.227 215.66 290.362 263.942 234.927C264.539 234.242 265.578 234.17 266.264 234.767C266.949 235.364 267.021 236.403 266.424 237.089C217.583 293.165 172.388 304.783 135.141 296.102C98.0813 287.464 69.4022 258.838 53.2014 235.446C52.6839 234.699 52.8701 233.674 53.6172 233.156Z" fill="black"/>
<path d="M272.806 138.19C247.029 172.127 148.215 155.896 173.993 92.4489C183.003 70.272 199.267 55.55 216.955 46.0431C262.781 43.9026 299.048 103.642 272.806 138.19Z" fill="white"/>
<path d="M262.302 145.207C272.116 142.445 284.432 123.899 275.665 92.7424C266.898 61.5862 246.264 50.5722 236.45 53.3338C226.635 56.0954 253.867 65.2531 262.634 96.4093C271.401 127.566 252.488 147.969 262.302 145.207Z" fill="#DFECF1"/>
<path d="M193.779 106.866C193.779 120.121 204.524 130.866 217.779 130.866C231.034 130.866 241.779 120.121 241.779 106.866C241.779 93.6114 231.034 82.8662 217.779 82.8662C204.524 82.8662 193.779 93.6114 193.779 106.866Z" fill="black"/>
<path d="M203 111C203 116.523 207.477 121 213 121C218.523 121 223 116.523 223 111C223 105.477 218.523 101 213 101C207.477 101 203 105.477 203 111Z" fill="white"/>
<path fill-rule="evenodd" clip-rule="evenodd" d="M229.707 43.6755C248.605 35.9456 267.729 33.5438 279.906 33.7679C281.723 33.8013 283.223 32.3552 283.257 30.5379C283.29 28.7206 281.844 27.2203 280.027 27.1868C264.522 26.9015 238.78 30.5767 215.397 43.1441C197.197 52.926 180.305 68.1682 170.944 91.21C164.177 107.866 165.448 121.896 172.122 132.848C178.709 143.656 190.247 150.954 203.082 154.978C215.943 159.012 230.445 159.874 243.453 157.52C256.408 155.176 268.308 149.552 275.427 140.18C289.643 121.465 286.662 96.3421 274.72 76.6515C264.92 60.4922 248.691 47.2878 229.707 43.6755ZM217.849 49.3016C238.955 48.6431 258.15 62.0227 269.092 80.0648C280.179 98.3457 282.211 120.367 270.185 136.199C264.415 143.796 254.297 148.869 242.281 151.043C230.317 153.208 216.893 152.411 205.051 148.698C193.182 144.976 183.239 138.441 177.743 129.422C172.334 120.547 170.92 108.755 177.042 93.6876C185.589 72.6506 200.934 58.5414 217.849 49.3016Z" fill="black"/>
<path d="M57.0639 138.19C83.5994 172.127 185.319 155.896 158.783 92.4489C149.508 70.272 132.766 55.55 114.557 46.0431C67.3832 43.9026 30.0505 103.642 57.0639 138.19Z" fill="white"/>
<path d="M63.4192 144.927C53.8474 141.417 42.9989 121.975 54.144 91.5882C65.289 61.2013 86.7119 51.8124 96.2837 55.323C105.856 58.8337 77.9986 65.8629 66.8536 96.2497C55.7085 126.637 72.991 148.438 63.4192 144.927Z" fill="#DFECF1"/>
<path d="M141.629 106.866C141.629 120.121 130.884 130.866 117.629 130.866C104.374 130.866 93.6292 120.121 93.6292 106.866C93.6292 93.6114 104.374 82.8662 117.629 82.8662C130.884 82.8662 141.629 93.6114 141.629 106.866Z" fill="black"/>
<path d="M133 112C133 117.523 128.523 122 123 122C117.477 122 113 117.523 113 112C113 106.477 117.477 102 123 102C128.523 102 133 106.477 133 112Z" fill="white"/>
<path fill-rule="evenodd" clip-rule="evenodd" d="M101.461 43.6735C81.9969 35.9461 62.3027 33.5436 49.7517 33.7679C47.9344 33.8004 46.4349 32.3535 46.4024 30.5362C46.3699 28.7188 47.8168 27.2193 49.6341 27.1868C65.5674 26.902 92.0356 30.5715 116.081 43.1256C134.791 52.8942 152.178 68.1259 161.82 91.179C168.794 107.855 167.484 121.916 160.604 132.884C153.824 143.69 141.963 150.972 128.784 154.986C115.571 159.011 100.674 159.872 87.314 157.523C74.0133 155.185 61.7904 149.577 54.4713 140.217C39.8213 121.481 42.8993 96.3155 55.1987 76.6153C65.294 60.4454 81.9801 47.2766 101.461 43.6735ZM113.686 49.303C91.8492 48.6227 72.0446 62.0615 60.782 80.1011C49.3748 98.3723 47.2931 120.351 59.6565 136.162C65.6052 143.77 76.048 148.86 88.4536 151.041C100.8 153.211 114.649 152.411 126.866 148.69C139.117 144.958 149.369 138.407 155.028 129.386C160.586 120.526 162.04 108.766 155.747 93.7187C146.948 72.6795 131.136 58.5556 113.686 49.303Z" fill="black"/>
</svg>
