<svg width="172" height="50" viewBox="0 0 172 50" fill="none" xmlns="http://www.w3.org/2000/svg">
<g filter="url(#filter0_d_2123_54)">
<rect width="168" height="46" rx="10" fill="white" shape-rendering="crispEdges"/>
<rect x="1" y="1" width="166" height="44" rx="9" stroke="black" stroke-width="2" shape-rendering="crispEdges"/>
<path d="M42.5 19.3086C42.5 19.5117 42.4258 19.6875 42.2773 19.8359C42.1289 19.9844 41.9531 20.0586 41.75 20.0586H29V24.5H38.75C38.9531 24.5 39.1289 24.5742 39.2773 24.7227C39.4258 24.8711 39.5 25.0469 39.5 25.25C39.5 26.1484 39.3867 27.0117 39.1602 27.8398C38.9336 28.668 38.6055 29.4453 38.1758 30.1719C37.7461 30.8984 37.2383 31.5547 36.6523 32.1406C36.0664 32.7266 35.4102 33.2344 34.6836 33.6641C33.957 34.0938 33.1797 34.4219 32.3516 34.6484C31.5234 34.875 30.6562 34.9922 29.75 35C28.8516 35 27.9883 34.8867 27.1602 34.6602C26.332 34.4336 25.5547 34.1055 24.8281 33.6758C24.1016 33.2461 23.4453 32.7383 22.8594 32.1523C22.2734 31.5664 21.7656 30.9102 21.3359 30.1836C20.9062 29.457 20.5781 28.6797 20.3516 27.8516C20.125 27.0234 20.0078 26.1562 20 25.25C20 25.0469 20.0742 24.8711 20.2227 24.7227C20.3711 24.5742 20.5469 24.5 20.75 24.5H27.5V20.0586H26V22.25C26 22.4531 25.9258 22.6289 25.7773 22.7773C25.6289 22.9258 25.4531 23 25.25 23C25.0469 23 24.8711 22.9258 24.7227 22.7773C24.5742 22.6289 24.5 22.4531 24.5 22.25V20.0586H22.25C22.0469 20.0586 21.8711 19.9844 21.7227 19.8359C21.5742 19.6875 21.5 19.5117 21.5 19.3086C21.5 19.1055 21.5742 18.9297 21.7227 18.7812C21.8711 18.6328 22.0469 18.5586 22.25 18.5586H24.5V16.7305L24.0312 16.8242C23.8359 16.8633 23.6328 16.9023 23.4219 16.9414C23.2109 16.9805 23.0117 17.0156 22.8242 17.0469C22.6367 17.0781 22.4883 17.0938 22.3789 17.0938C22.1758 17.0938 22 17.0195 21.8516 16.8711C21.7031 16.7227 21.6289 16.5469 21.6289 16.3438C21.6289 16.1641 21.6875 16.0039 21.8047 15.8633C21.9219 15.7227 22.0703 15.6367 22.25 15.6055L41.6914 12.1836C41.7227 12.1758 41.7656 12.1719 41.8203 12.1719C42.0234 12.1719 42.1992 12.2461 42.3477 12.3945C42.4961 12.543 42.5703 12.7188 42.5703 12.9219C42.5703 13.1016 42.5117 13.2617 42.3945 13.4023C42.2773 13.543 42.1289 13.6289 41.9492 13.6602L29 15.9453V18.5586H41.75C41.9531 18.5586 42.1289 18.6328 42.2773 18.7812C42.4258 18.9297 42.5 19.1055 42.5 19.3086ZM29.75 33.5C30.8125 33.5 31.8203 33.3086 32.7734 32.9258C33.7266 32.543 34.5703 32.0156 35.3047 31.3438C36.0391 30.6719 36.6445 29.8789 37.1211 28.9648C37.5977 28.0508 37.8789 27.0625 37.9648 26H21.5352C21.6289 27.0625 21.9102 28.0508 22.3789 28.9648C22.8477 29.8789 23.4492 30.6719 24.1836 31.3438C24.918 32.0156 25.7656 32.543 26.7266 32.9258C27.6875 33.3086 28.6953 33.5 29.75 33.5ZM26 18.5586H27.5V16.2031L26 16.4727V18.5586Z" fill="black"/>
<path d="M53.32 30C52.3067 30 51.52 29.7333 50.96 29.2C50.4 28.6667 50.12 27.92 50.12 26.96V18.96C50.12 18.0267 50.3867 17.3 50.92 16.78C51.4667 16.26 52.22 16 53.18 16H59.4C59.8 16 60.1067 16.0933 60.32 16.28C60.5333 16.4533 60.64 16.7067 60.64 17.04C60.64 17.36 60.5267 17.6133 60.3 17.8C60.0867 17.9733 59.7867 18.06 59.4 18.06H53.64C53.3733 18.06 53.16 18.1467 53 18.32C52.8533 18.4933 52.78 18.7333 52.78 19.04V21.82H57.88C58.28 21.82 58.5867 21.9133 58.8 22.1C59.0133 22.2733 59.12 22.5267 59.12 22.86C59.12 23.18 59.0067 23.4333 58.78 23.62C58.5667 23.7933 58.2667 23.88 57.88 23.88H52.78V26.96C52.78 27.2667 52.8533 27.5067 53 27.68C53.16 27.8533 53.3733 27.94 53.64 27.94H59.84C60.24 27.94 60.5467 28.0333 60.76 28.22C60.9733 28.3933 61.08 28.6467 61.08 28.98C61.08 29.3 60.9667 29.5533 60.74 29.74C60.5267 29.9133 60.2267 30 59.84 30H53.32ZM66.0294 30.2C65.2027 30.2 64.4694 30.06 63.8294 29.78C63.2027 29.5 62.7094 29.1133 62.3494 28.62C62.0027 28.1133 61.8294 27.5333 61.8294 26.88C61.8294 25.8933 62.236 25.1067 63.0494 24.52C63.876 23.9333 64.9894 23.64 66.3894 23.64C67.6027 23.64 68.576 23.9 69.3094 24.42V23.94C69.3094 23.3133 69.116 22.8333 68.7294 22.5C68.3427 22.1667 67.7827 22 67.0494 22C65.956 22 65.016 22.2333 64.2294 22.7C63.896 22.8867 63.6094 22.98 63.3694 22.98C63.076 22.98 62.816 22.8467 62.5894 22.58C62.4427 22.3933 62.3694 22.2 62.3694 22C62.3694 21.6667 62.5427 21.3733 62.8894 21.12C63.3694 20.7733 63.976 20.5 64.7094 20.3C65.4427 20.1 66.216 20 67.0294 20C68.576 20 69.7894 20.3533 70.6694 21.06C71.5627 21.7533 72.0094 22.7133 72.0094 23.94V29.08C72.0094 29.4267 71.8894 29.7 71.6494 29.9C71.4227 30.1 71.1094 30.2 70.7094 30.2C70.296 30.2 69.976 30.1067 69.7494 29.92C69.5227 29.7333 69.4094 29.4667 69.4094 29.12V28.9C68.6494 29.7667 67.5227 30.2 66.0294 30.2ZM66.6494 28.36C67.4894 28.36 68.1427 28.2333 68.6094 27.98C69.0894 27.7133 69.3294 27.3467 69.3294 26.88C69.3294 26.44 69.0894 26.0867 68.6094 25.82C68.1294 25.5533 67.4894 25.42 66.6894 25.42C65.9694 25.42 65.4094 25.5467 65.0094 25.8C64.6227 26.0533 64.4294 26.4133 64.4294 26.88C64.4294 27.3467 64.6227 27.7133 65.0094 27.98C65.396 28.2333 65.9427 28.36 66.6494 28.36ZM81.4003 27.42C81.6136 27.5933 81.7203 27.8067 81.7203 28.06C81.7203 28.3133 81.627 28.5733 81.4403 28.84C81.147 29.2667 80.7336 29.6 80.2003 29.84C79.667 30.08 79.067 30.2 78.4003 30.2C77.3336 30.2 76.4936 29.9133 75.8803 29.34C75.2803 28.7533 74.9803 27.9533 74.9803 26.94V22.26H74.1603C73.7603 22.26 73.4403 22.1667 73.2003 21.98C72.9603 21.7933 72.8403 21.5467 72.8403 21.24C72.8403 20.92 72.9536 20.6667 73.1803 20.48C73.4203 20.2933 73.747 20.2 74.1603 20.2H74.9803V17.18C74.9803 16.8067 75.1003 16.5133 75.3403 16.3C75.5803 16.0867 75.9003 15.98 76.3003 15.98C76.7136 15.98 77.0336 16.0867 77.2603 16.3C77.487 16.5133 77.6003 16.8067 77.6003 17.18V20.2H79.5203C79.9336 20.2 80.2536 20.2933 80.4803 20.48C80.7203 20.6667 80.8403 20.92 80.8403 21.24C80.8403 21.5467 80.7203 21.7933 80.4803 21.98C80.2536 22.1667 79.9336 22.26 79.5203 22.26H77.6003V27.16C77.6003 27.4533 77.687 27.6867 77.8603 27.86C78.047 28.0333 78.2936 28.12 78.6003 28.12C78.8403 28.12 79.047 28.0867 79.2203 28.02C79.407 27.94 79.5936 27.8133 79.7803 27.64C80.127 27.3067 80.447 27.14 80.7403 27.14C80.9536 27.14 81.1736 27.2333 81.4003 27.42ZM84.6822 30.2C84.2822 30.2 83.9622 30.0933 83.7222 29.88C83.4822 29.6667 83.3622 29.3733 83.3622 29V20.76C83.3622 19.2133 83.8022 18 84.6822 17.12C85.5622 16.24 86.7755 15.8 88.3222 15.8C89.0689 15.8 89.7689 15.9867 90.4222 16.36C91.0889 16.72 91.6622 17.24 92.1422 17.92C92.6089 17.2267 93.1689 16.7 93.8222 16.34C94.4889 15.98 95.2089 15.8 95.9822 15.8C97.5289 15.8 98.7422 16.24 99.6222 17.12C100.502 18 100.942 19.2133 100.942 20.76V29C100.942 29.36 100.816 29.6533 100.562 29.88C100.322 30.0933 100.002 30.2 99.6022 30.2C99.2022 30.2 98.8822 30.0933 98.6422 29.88C98.4022 29.6667 98.2822 29.3733 98.2822 29V20.76C98.2822 19.7467 98.0955 19.02 97.7222 18.58C97.3489 18.1267 96.7355 17.9 95.8822 17.9C95.1089 17.9 94.5089 18.1467 94.0822 18.64C93.6689 19.1333 93.4622 19.84 93.4622 20.76V29C93.4622 29.3733 93.3422 29.6667 93.1022 29.88C92.8622 30.0933 92.5422 30.2 92.1422 30.2C91.7422 30.2 91.4222 30.0933 91.1822 29.88C90.9555 29.6667 90.8422 29.3733 90.8422 29V20.76C90.8422 19.8667 90.6289 19.1667 90.2022 18.66C89.7755 18.1533 89.1822 17.9 88.4222 17.9C87.5689 17.9 86.9555 18.1267 86.5822 18.58C86.2089 19.02 86.0222 19.7467 86.0222 20.76V29C86.0222 29.36 85.8955 29.6533 85.6422 29.88C85.4022 30.0933 85.0822 30.2 84.6822 30.2ZM106.986 30.2C106.16 30.2 105.426 30.06 104.786 29.78C104.16 29.5 103.666 29.1133 103.306 28.62C102.96 28.1133 102.786 27.5333 102.786 26.88C102.786 25.8933 103.193 25.1067 104.006 24.52C104.833 23.9333 105.946 23.64 107.346 23.64C108.56 23.64 109.533 23.9 110.266 24.42V23.94C110.266 23.3133 110.073 22.8333 109.686 22.5C109.3 22.1667 108.74 22 108.006 22C106.913 22 105.973 22.2333 105.186 22.7C104.853 22.8867 104.566 22.98 104.326 22.98C104.033 22.98 103.773 22.8467 103.546 22.58C103.4 22.3933 103.326 22.2 103.326 22C103.326 21.6667 103.5 21.3733 103.846 21.12C104.326 20.7733 104.933 20.5 105.666 20.3C106.4 20.1 107.173 20 107.986 20C109.533 20 110.746 20.3533 111.626 21.06C112.52 21.7533 112.966 22.7133 112.966 23.94V29.08C112.966 29.4267 112.846 29.7 112.606 29.9C112.38 30.1 112.066 30.2 111.666 30.2C111.253 30.2 110.933 30.1067 110.706 29.92C110.48 29.7333 110.366 29.4667 110.366 29.12V28.9C109.606 29.7667 108.48 30.2 106.986 30.2ZM107.606 28.36C108.446 28.36 109.1 28.2333 109.566 27.98C110.046 27.7133 110.286 27.3467 110.286 26.88C110.286 26.44 110.046 26.0867 109.566 25.82C109.086 25.5533 108.446 25.42 107.646 25.42C106.926 25.42 106.366 25.5467 105.966 25.8C105.58 26.0533 105.386 26.4133 105.386 26.88C105.386 27.3467 105.58 27.7133 105.966 27.98C106.353 28.2333 106.9 28.36 107.606 28.36ZM122.357 27.42C122.571 27.5933 122.677 27.8067 122.677 28.06C122.677 28.3133 122.584 28.5733 122.397 28.84C122.104 29.2667 121.691 29.6 121.157 29.84C120.624 30.08 120.024 30.2 119.357 30.2C118.291 30.2 117.451 29.9133 116.837 29.34C116.237 28.7533 115.937 27.9533 115.937 26.94V22.26H115.117C114.717 22.26 114.397 22.1667 114.157 21.98C113.917 21.7933 113.797 21.5467 113.797 21.24C113.797 20.92 113.911 20.6667 114.137 20.48C114.377 20.2933 114.704 20.2 115.117 20.2H115.937V17.18C115.937 16.8067 116.057 16.5133 116.297 16.3C116.537 16.0867 116.857 15.98 117.257 15.98C117.671 15.98 117.991 16.0867 118.217 16.3C118.444 16.5133 118.557 16.8067 118.557 17.18V20.2H120.477C120.891 20.2 121.211 20.2933 121.437 20.48C121.677 20.6667 121.797 20.92 121.797 21.24C121.797 21.5467 121.677 21.7933 121.437 21.98C121.211 22.1667 120.891 22.26 120.477 22.26H118.557V27.16C118.557 27.4533 118.644 27.6867 118.817 27.86C119.004 28.0333 119.251 28.12 119.557 28.12C119.797 28.12 120.004 28.0867 120.177 28.02C120.364 27.94 120.551 27.8133 120.737 27.64C121.084 27.3067 121.404 27.14 121.697 27.14C121.911 27.14 122.131 27.2333 122.357 27.42ZM129.559 30.2C127.773 30.2 126.386 29.7533 125.399 28.86C124.413 27.9533 123.919 26.6933 123.919 25.08C123.919 23.4667 124.413 22.22 125.399 21.34C126.386 20.4467 127.773 20 129.559 20C130.506 20 131.359 20.16 132.119 20.48C132.893 20.7867 133.499 21.2267 133.939 21.8C134.099 22 134.179 22.2133 134.179 22.44C134.179 22.7867 133.999 23.0933 133.639 23.36C133.479 23.48 133.279 23.54 133.039 23.54C132.853 23.54 132.659 23.5 132.459 23.42C132.259 23.3267 132.086 23.2 131.939 23.04C131.673 22.7333 131.326 22.5 130.899 22.34C130.486 22.1667 130.039 22.08 129.559 22.08C128.613 22.08 127.873 22.3467 127.339 22.88C126.819 23.4 126.559 24.1333 126.559 25.08C126.559 26.0533 126.819 26.8067 127.339 27.34C127.873 27.86 128.613 28.12 129.559 28.12C130.613 28.12 131.513 27.7667 132.259 27.06C132.633 26.6867 132.999 26.5 133.359 26.5C133.599 26.5 133.819 26.58 134.019 26.74C134.339 26.9933 134.499 27.3 134.499 27.66C134.499 27.8867 134.406 28.1067 134.219 28.32C133.606 28.9733 132.919 29.4533 132.159 29.76C131.413 30.0533 130.546 30.2 129.559 30.2ZM137.431 30.2C137.018 30.2 136.698 30.0933 136.471 29.88C136.244 29.6667 136.131 29.3733 136.131 29V16.02C136.131 15.6467 136.244 15.3533 136.471 15.14C136.698 14.9267 137.018 14.82 137.431 14.82C137.831 14.82 138.151 14.9267 138.391 15.14C138.631 15.3533 138.751 15.6467 138.751 16.02V21.78C139.244 21.1667 139.798 20.72 140.411 20.44C141.024 20.1467 141.738 20 142.551 20C143.831 20 144.838 20.4067 145.571 21.22C146.318 22.02 146.691 23.1133 146.691 24.5V29C146.691 29.3733 146.571 29.6667 146.331 29.88C146.091 30.0933 145.771 30.2 145.371 30.2C144.958 30.2 144.638 30.0933 144.411 29.88C144.184 29.6667 144.071 29.3733 144.071 29V24.5C144.071 23.74 143.884 23.1467 143.511 22.72C143.138 22.2933 142.618 22.08 141.951 22.08C140.938 22.08 140.151 22.38 139.591 22.98C139.031 23.5667 138.751 24.3933 138.751 25.46V29C138.751 29.3733 138.631 29.6667 138.391 29.88C138.151 30.0933 137.831 30.2 137.431 30.2Z" fill="black"/>
</g>
<defs>
<filter id="filter0_d_2123_54" x="0" y="0" width="172" height="50" filterUnits="userSpaceOnUse" color-interpolation-filters="sRGB">
<feFlood flood-opacity="0" result="BackgroundImageFix"/>
<feColorMatrix in="SourceAlpha" type="matrix" values="0 0 0 0 0 0 0 0 0 0 0 0 0 0 0 0 0 0 127 0" result="hardAlpha"/>
<feOffset dx="4" dy="4"/>
<feComposite in2="hardAlpha" operator="out"/>
<feColorMatrix type="matrix" values="0 0 0 0 0 0 0 0 0 0 0 0 0 0 0 0 0 0 1 0"/>
<feBlend mode="normal" in2="BackgroundImageFix" result="effect1_dropShadow_2123_54"/>
<feBlend mode="normal" in="SourceGraphic" in2="effect1_dropShadow_2123_54" result="shape"/>
</filter>
</defs>
</svg>
