<svg width="172" height="50" viewBox="0 0 172 50" fill="none" xmlns="http://www.w3.org/2000/svg">
<g filter="url(#filter0_d_2123_649)">
<rect y="0.0111465" width="167.923" height="45.9777" rx="9.98885" fill="black" shape-rendering="crispEdges"/>
<rect x="0.998885" y="1.01003" width="165.925" height="43.9799" rx="8.98997" stroke="white" stroke-width="1.99777" shape-rendering="crispEdges"/>
<g clip-path="url(#clip0_2123_649)">
<path d="M42.4527 19.3127C42.4527 19.5156 42.3786 19.6912 42.2303 19.8394C42.082 19.9877 41.9064 20.0619 41.7035 20.0619H28.9677V24.4983H38.7069C38.9098 24.4983 39.0854 24.5724 39.2336 24.7207C39.3819 24.869 39.456 25.0446 39.456 25.2475C39.456 26.1449 39.3429 27.0072 39.1166 27.8344C38.8903 28.6616 38.5625 29.4381 38.1333 30.1639C37.7041 30.8896 37.1968 31.5451 36.6116 32.1304C36.0263 32.7157 35.3708 33.2229 34.645 33.6522C33.9193 34.0814 33.1428 34.4091 32.3156 34.6354C31.4884 34.8617 30.6222 34.9788 29.7169 34.9866C28.8195 34.9866 27.9572 34.8734 27.13 34.6471C26.3028 34.4208 25.5263 34.0931 24.8005 33.6639C24.0748 33.2346 23.4193 32.7274 22.834 32.1421C22.2487 31.5568 21.7414 30.9013 21.3122 30.1756C20.883 29.4498 20.5553 28.6733 20.329 27.8461C20.1026 27.0189 19.9856 26.1527 19.9778 25.2475C19.9778 25.0446 20.0519 24.869 20.2002 24.7207C20.3485 24.5724 20.524 24.4983 20.7269 24.4983H27.4694V20.0619H25.9711V22.2508C25.9711 22.4537 25.897 22.6293 25.7487 22.7776C25.6004 22.9258 25.4248 23 25.2219 23C25.019 23 24.8434 22.9258 24.6952 22.7776C24.5469 22.6293 24.4728 22.4537 24.4728 22.2508V20.0619H22.2253C22.0224 20.0619 21.8468 19.9877 21.6985 19.8394C21.5502 19.6912 21.4761 19.5156 21.4761 19.3127C21.4761 19.1098 21.5502 18.9342 21.6985 18.7859C21.8468 18.6377 22.0224 18.5635 22.2253 18.5635H24.4728V16.7374L24.0045 16.8311C23.8094 16.8701 23.6065 16.9091 23.3958 16.9481C23.1851 16.9872 22.9861 17.0223 22.7989 17.0535C22.6116 17.0847 22.4633 17.1003 22.354 17.1003C22.1511 17.1003 21.9756 17.0262 21.8273 16.8779C21.679 16.7296 21.6049 16.554 21.6049 16.3511C21.6049 16.1717 21.6634 16.0117 21.7805 15.8712C21.8975 15.7307 22.0458 15.6449 22.2253 15.6137L41.645 12.1956C41.6762 12.1878 41.7191 12.1839 41.7738 12.1839C41.9767 12.1839 42.1523 12.2581 42.3005 12.4063C42.4488 12.5546 42.5229 12.7302 42.5229 12.9331C42.5229 13.1126 42.4644 13.2726 42.3473 13.413C42.2303 13.5535 42.082 13.6393 41.9025 13.6705L28.9677 15.9532V18.5635H41.7035C41.9064 18.5635 42.082 18.6377 42.2303 18.7859C42.3786 18.9342 42.4527 19.1098 42.4527 19.3127ZM29.7169 33.4883C30.7782 33.4883 31.7849 33.2971 32.737 32.9147C33.689 32.5323 34.5319 32.0056 35.2654 31.3344C35.999 30.6633 36.6038 29.8712 37.0798 28.9582C37.5558 28.0451 37.8368 27.058 37.9226 25.9966H21.5112C21.6049 27.058 21.8858 28.0451 22.354 28.9582C22.8223 29.8712 23.4232 30.6633 24.1567 31.3344C24.8903 32.0056 25.737 32.5323 26.6968 32.9147C27.6567 33.2971 28.6634 33.4883 29.7169 33.4883ZM25.9711 18.5635H27.4694V16.2107L25.9711 16.4799V18.5635Z" fill="white"/>
</g>
<path d="M53.2605 30C52.2483 30 51.4625 29.7337 50.9031 29.2009C50.3438 28.6682 50.0641 27.9223 50.0641 26.9634V18.9723C50.0641 18.04 50.3304 17.3142 50.8632 16.7948C51.4092 16.2753 52.1617 16.0156 53.1207 16.0156H59.3337C59.7333 16.0156 60.0396 16.1089 60.2527 16.2953C60.4658 16.4685 60.5723 16.7215 60.5723 17.0545C60.5723 17.3741 60.4591 17.6272 60.2327 17.8136C60.0196 17.9868 59.72 18.0733 59.3337 18.0733H53.5801C53.3138 18.0733 53.1007 18.1599 52.9409 18.333C52.7944 18.5062 52.7211 18.7459 52.7211 19.0522V21.8291H57.8154C58.215 21.8291 58.5213 21.9224 58.7344 22.1088C58.9475 22.282 59.054 22.535 59.054 22.868C59.054 23.1876 58.9408 23.4407 58.7144 23.6271C58.5013 23.8003 58.2016 23.8869 57.8154 23.8869H52.7211V26.9634C52.7211 27.2697 52.7944 27.5095 52.9409 27.6826C53.1007 27.8558 53.3138 27.9423 53.5801 27.9423H59.7732C60.1728 27.9423 60.4791 28.0356 60.6922 28.222C60.9053 28.3952 61.0118 28.6482 61.0118 28.9812C61.0118 29.3008 60.8986 29.5539 60.6722 29.7403C60.4591 29.9135 60.1595 30 59.7732 30H53.2605ZM65.9557 30.1998C65.13 30.1998 64.3974 30.06 63.7582 29.7803C63.1322 29.5006 62.6394 29.1144 62.2798 28.6216C61.9335 28.1155 61.7604 27.5361 61.7604 26.8835C61.7604 25.8979 62.1666 25.1122 62.979 24.5261C63.8048 23.9401 64.9169 23.6471 66.3153 23.6471C67.5273 23.6471 68.4995 23.9068 69.232 24.4263V23.9468C69.232 23.3208 69.0389 22.8414 68.6527 22.5084C68.2665 22.1754 67.7071 22.0089 66.9746 22.0089C65.8825 22.0089 64.9435 22.242 64.1577 22.7082C63.8247 22.8946 63.5384 22.9879 63.2987 22.9879C63.0057 22.9879 62.746 22.8547 62.5195 22.5883C62.373 22.4018 62.2998 22.2087 62.2998 22.0089C62.2998 21.676 62.4729 21.383 62.8192 21.1299C63.2987 20.7836 63.9047 20.5106 64.6372 20.3108C65.3697 20.1111 66.1422 20.0112 66.9546 20.0112C68.4995 20.0112 69.7115 20.3641 70.5905 21.07C71.4829 21.7626 71.929 22.7215 71.929 23.9468V29.0811C71.929 29.4273 71.8092 29.7004 71.5694 29.9001C71.343 30.0999 71.03 30.1998 70.6305 30.1998C70.2176 30.1998 69.898 30.1066 69.6716 29.9201C69.4451 29.7337 69.3319 29.4673 69.3319 29.121V28.9013C68.5728 29.767 67.4474 30.1998 65.9557 30.1998ZM66.575 28.3619C67.4141 28.3619 68.0667 28.2353 68.5328 27.9823C69.0123 27.7159 69.252 27.3497 69.252 26.8835C69.252 26.444 69.0123 26.0911 68.5328 25.8247C68.0534 25.5583 67.4141 25.4251 66.615 25.4251C65.8958 25.4251 65.3364 25.5517 64.9368 25.8047C64.5506 26.0578 64.3575 26.4174 64.3575 26.8835C64.3575 27.3497 64.5506 27.7159 64.9368 27.9823C65.3231 28.2353 65.8691 28.3619 66.575 28.3619ZM81.3095 27.4229C81.5226 27.596 81.6291 27.8091 81.6291 28.0622C81.6291 28.3152 81.5359 28.575 81.3495 28.8413C81.0565 29.2675 80.6436 29.6005 80.1108 29.8402C79.5781 30.0799 78.9788 30.1998 78.3129 30.1998C77.2474 30.1998 76.4083 29.9135 75.7957 29.3408C75.1963 28.7548 74.8967 27.9556 74.8967 26.9434V22.2687H74.0776C73.678 22.2687 73.3584 22.1754 73.1186 21.989C72.8789 21.8025 72.759 21.5561 72.759 21.2498C72.759 20.9302 72.8723 20.6771 73.0987 20.4906C73.3384 20.3042 73.6647 20.211 74.0776 20.211H74.8967V17.1943C74.8967 16.8214 75.0165 16.5284 75.2563 16.3153C75.496 16.1022 75.8156 15.9957 76.2152 15.9957C76.6281 15.9957 76.9477 16.1022 77.1741 16.3153C77.4005 16.5284 77.5137 16.8214 77.5137 17.1943V20.211H79.4316C79.8445 20.211 80.1641 20.3042 80.3905 20.4906C80.6303 20.6771 80.7501 20.9302 80.7501 21.2498C80.7501 21.5561 80.6303 21.8025 80.3905 21.989C80.1641 22.1754 79.8445 22.2687 79.4316 22.2687H77.5137V27.1632C77.5137 27.4562 77.6003 27.6893 77.7735 27.8624C77.9599 28.0356 78.2063 28.1221 78.5126 28.1221C78.7524 28.1221 78.9588 28.0888 79.1319 28.0222C79.3184 27.9423 79.5049 27.8158 79.6913 27.6427C80.0376 27.3097 80.3572 27.1432 80.6502 27.1432C80.8633 27.1432 81.0831 27.2364 81.3095 27.4229ZM84.5877 30.1998C84.1882 30.1998 83.8685 30.0933 83.6288 29.8802C83.3891 29.6671 83.2692 29.3741 83.2692 29.0011V20.7703C83.2692 19.2254 83.7087 18.0134 84.5877 17.1344C85.4667 16.2554 86.6787 15.8159 88.2237 15.8159C88.9695 15.8159 89.6687 16.0023 90.3213 16.3752C90.9872 16.7348 91.5599 17.2543 92.0394 17.9335C92.5056 17.2409 93.0649 16.7149 93.7175 16.3553C94.3835 15.9957 95.1027 15.8159 95.8751 15.8159C97.4201 15.8159 98.6321 16.2554 99.5111 17.1344C100.39 18.0134 100.83 19.2254 100.83 20.7703V29.0011C100.83 29.3607 100.703 29.6538 100.45 29.8802C100.21 30.0933 99.8906 30.1998 99.4911 30.1998C99.0915 30.1998 98.7719 30.0933 98.5322 29.8802C98.2924 29.6671 98.1726 29.3741 98.1726 29.0011V20.7703C98.1726 19.7581 97.9861 19.0323 97.6132 18.5928C97.2403 18.1399 96.6276 17.9135 95.7752 17.9135C95.0028 17.9135 94.4034 18.1599 93.9772 18.6527C93.5644 19.1455 93.3579 19.8514 93.3579 20.7703V29.0011C93.3579 29.3741 93.2381 29.6671 92.9983 29.8802C92.7586 30.0933 92.439 30.1998 92.0394 30.1998C91.6399 30.1998 91.3202 30.0933 91.0805 29.8802C90.8541 29.6671 90.7409 29.3741 90.7409 29.0011V20.7703C90.7409 19.878 90.5278 19.1788 90.1016 18.6727C89.6754 18.1666 89.0827 17.9135 88.3236 17.9135C87.4712 17.9135 86.8585 18.1399 86.4856 18.5928C86.1127 19.0323 85.9262 19.7581 85.9262 20.7703V29.0011C85.9262 29.3607 85.7997 29.6538 85.5467 29.8802C85.3069 30.0933 84.9873 30.1998 84.5877 30.1998ZM106.867 30.1998C106.041 30.1998 105.309 30.06 104.67 29.7803C104.044 29.5006 103.551 29.1144 103.191 28.6216C102.845 28.1155 102.672 27.5361 102.672 26.8835C102.672 25.8979 103.078 25.1122 103.89 24.5261C104.716 23.9401 105.828 23.6471 107.227 23.6471C108.439 23.6471 109.411 23.9068 110.143 24.4263V23.9468C110.143 23.3208 109.95 22.8414 109.564 22.5084C109.178 22.1754 108.618 22.0089 107.886 22.0089C106.794 22.0089 105.855 22.242 105.069 22.7082C104.736 22.8946 104.45 22.9879 104.21 22.9879C103.917 22.9879 103.657 22.8547 103.431 22.5883C103.284 22.4018 103.211 22.2087 103.211 22.0089C103.211 21.676 103.384 21.383 103.731 21.1299C104.21 20.7836 104.816 20.5106 105.549 20.3108C106.281 20.1111 107.054 20.0112 107.866 20.0112C109.411 20.0112 110.623 20.3641 111.502 21.07C112.394 21.7626 112.84 22.7215 112.84 23.9468V29.0811C112.84 29.4273 112.721 29.7004 112.481 29.9001C112.254 30.0999 111.941 30.1998 111.542 30.1998C111.129 30.1998 110.809 30.1066 110.583 29.9201C110.357 29.7337 110.243 29.4673 110.243 29.121V28.9013C109.484 29.767 108.359 30.1998 106.867 30.1998ZM107.486 28.3619C108.325 28.3619 108.978 28.2353 109.444 27.9823C109.924 27.7159 110.163 27.3497 110.163 26.8835C110.163 26.444 109.924 26.0911 109.444 25.8247C108.965 25.5583 108.325 25.4251 107.526 25.4251C106.807 25.4251 106.248 25.5517 105.848 25.8047C105.462 26.0578 105.269 26.4174 105.269 26.8835C105.269 27.3497 105.462 27.7159 105.848 27.9823C106.234 28.2353 106.781 28.3619 107.486 28.3619ZM122.221 27.4229C122.434 27.596 122.541 27.8091 122.541 28.0622C122.541 28.3152 122.447 28.575 122.261 28.8413C121.968 29.2675 121.555 29.6005 121.022 29.8402C120.489 30.0799 119.89 30.1998 119.224 30.1998C118.159 30.1998 117.32 29.9135 116.707 29.3408C116.108 28.7548 115.808 27.9556 115.808 26.9434V22.2687H114.989C114.589 22.2687 114.27 22.1754 114.03 21.989C113.79 21.8025 113.67 21.5561 113.67 21.2498C113.67 20.9302 113.784 20.6771 114.01 20.4906C114.25 20.3042 114.576 20.211 114.989 20.211H115.808V17.1943C115.808 16.8214 115.928 16.5284 116.168 16.3153C116.407 16.1022 116.727 15.9957 117.127 15.9957C117.539 15.9957 117.859 16.1022 118.085 16.3153C118.312 16.5284 118.425 16.8214 118.425 17.1943V20.211H120.343C120.756 20.211 121.075 20.3042 121.302 20.4906C121.542 20.6771 121.662 20.9302 121.662 21.2498C121.662 21.5561 121.542 21.8025 121.302 21.989C121.075 22.1754 120.756 22.2687 120.343 22.2687H118.425V27.1632C118.425 27.4562 118.512 27.6893 118.685 27.8624C118.871 28.0356 119.118 28.1221 119.424 28.1221C119.664 28.1221 119.87 28.0888 120.043 28.0222C120.23 27.9423 120.416 27.8158 120.603 27.6427C120.949 27.3097 121.269 27.1432 121.562 27.1432C121.775 27.1432 121.994 27.2364 122.221 27.4229ZM129.415 30.1998C127.63 30.1998 126.245 29.7536 125.259 28.8613C124.274 27.9556 123.781 26.697 123.781 25.0855C123.781 23.474 124.274 22.2287 125.259 21.3497C126.245 20.4573 127.63 20.0112 129.415 20.0112C130.36 20.0112 131.213 20.171 131.972 20.4906C132.744 20.797 133.35 21.2365 133.79 21.8092C133.95 22.0089 134.03 22.222 134.03 22.4485C134.03 22.7947 133.85 23.1011 133.49 23.3674C133.33 23.4873 133.131 23.5472 132.891 23.5472C132.704 23.5472 132.511 23.5073 132.311 23.4274C132.112 23.3341 131.939 23.2076 131.792 23.0478C131.526 22.7415 131.179 22.5084 130.753 22.3486C130.34 22.1754 129.894 22.0889 129.415 22.0889C128.469 22.0889 127.73 22.3552 127.197 22.888C126.678 23.4074 126.418 24.1399 126.418 25.0855C126.418 26.0578 126.678 26.8103 127.197 27.343C127.73 27.8624 128.469 28.1221 129.415 28.1221C130.467 28.1221 131.366 27.7692 132.112 27.0633C132.485 26.6904 132.851 26.5039 133.21 26.5039C133.45 26.5039 133.67 26.5838 133.87 26.7437C134.189 26.9967 134.349 27.303 134.349 27.6626C134.349 27.8891 134.256 28.1088 134.07 28.3219C133.457 28.9745 132.771 29.454 132.012 29.7603C131.266 30.0533 130.4 30.1998 129.415 30.1998ZM137.278 30.1998C136.865 30.1998 136.545 30.0933 136.319 29.8802C136.092 29.6671 135.979 29.3741 135.979 29.0011V16.0356C135.979 15.6627 136.092 15.3697 136.319 15.1566C136.545 14.9435 136.865 14.837 137.278 14.837C137.677 14.837 137.997 14.9435 138.237 15.1566C138.476 15.3697 138.596 15.6627 138.596 16.0356V21.7892C139.089 21.1765 139.642 20.7304 140.254 20.4507C140.867 20.1577 141.58 20.0112 142.392 20.0112C143.671 20.0112 144.676 20.4174 145.409 21.2298C146.154 22.0289 146.527 23.121 146.527 24.5062V29.0011C146.527 29.3741 146.407 29.6671 146.168 29.8802C145.928 30.0933 145.608 30.1998 145.209 30.1998C144.796 30.1998 144.476 30.0933 144.25 29.8802C144.023 29.6671 143.91 29.3741 143.91 29.0011V24.5062C143.91 23.747 143.724 23.1543 143.351 22.7281C142.978 22.302 142.459 22.0889 141.793 22.0889C140.78 22.0889 139.995 22.3885 139.435 22.9879C138.876 23.5739 138.596 24.3996 138.596 25.4651V29.0011C138.596 29.3741 138.476 29.6671 138.237 29.8802C137.997 30.0933 137.677 30.1998 137.278 30.1998Z" fill="white"/>
</g>
<defs>
<filter id="filter0_d_2123_649" x="0" y="0.0111465" width="171.918" height="49.9732" filterUnits="userSpaceOnUse" color-interpolation-filters="sRGB">
<feFlood flood-opacity="0" result="BackgroundImageFix"/>
<feColorMatrix in="SourceAlpha" type="matrix" values="0 0 0 0 0 0 0 0 0 0 0 0 0 0 0 0 0 0 127 0" result="hardAlpha"/>
<feOffset dx="3.99554" dy="3.99554"/>
<feComposite in2="hardAlpha" operator="out"/>
<feColorMatrix type="matrix" values="0 0 0 0 1 0 0 0 0 1 0 0 0 0 1 0 0 0 1 0"/>
<feBlend mode="normal" in2="BackgroundImageFix" result="effect1_dropShadow_2123_649"/>
<feBlend mode="normal" in="SourceGraphic" in2="effect1_dropShadow_2123_649" result="shape"/>
</filter>
<clipPath id="clip0_2123_649">
<rect width="23.9732" height="23.9732" fill="white" transform="translate(19.9778 11.0134)"/>
</clipPath>
</defs>
</svg>
