<svg width="327" height="360" viewBox="0 0 327 360" fill="none" xmlns="http://www.w3.org/2000/svg">
<path fill-rule="evenodd" clip-rule="evenodd" d="M92.6667 277.023C94.4425 277.327 95.6703 279.251 95.4091 281.32C94.5811 287.876 95.186 298.995 98.0413 310.196C100.9 321.411 105.846 332.047 113.226 338.28C114.679 339.508 115.003 341.875 113.949 343.568C112.896 345.261 110.863 345.638 109.41 344.411C100.398 336.798 94.8707 324.357 91.8102 312.351C88.7461 300.331 87.9849 288.084 88.9783 280.218C89.2395 278.149 90.8909 276.719 92.6667 277.023Z" fill="black"/>
<path fill-rule="evenodd" clip-rule="evenodd" d="M227.47 277.023C225.694 277.327 224.466 279.251 224.727 281.32C225.555 287.876 224.95 298.995 222.095 310.196C219.236 321.411 214.29 332.047 206.91 338.28C205.457 339.508 205.133 341.875 206.187 343.568C207.241 345.261 209.273 345.638 210.726 344.411C219.739 336.798 225.266 324.357 228.326 312.351C231.39 300.331 232.151 288.084 231.158 280.218C230.897 278.149 229.245 276.719 227.47 277.023Z" fill="black"/>
<path d="M104.818 250.481C104.818 214.934 129.554 186.118 160.068 186.118C190.582 186.118 215.318 214.934 215.318 250.481V284.555C215.318 320.102 190.582 348.918 160.068 348.918C129.554 348.918 104.818 320.102 104.818 284.555V250.481Z" fill="black"/>
<path d="M114.568 306.324C114.568 316.032 135.667 318.629 161.693 318.629C187.72 318.629 208.818 314.275 208.818 304.567C208.818 294.858 187.72 269.41 161.693 269.41C135.667 269.41 114.568 296.616 114.568 306.324Z" fill="#DE3D3D"/>
<path d="M208.818 228.431C208.818 237.683 187.72 223.406 161.693 223.406C135.667 223.406 114.568 236.008 114.568 226.756C114.568 217.505 135.667 189.904 161.693 189.904C187.72 189.904 208.818 219.18 208.818 228.431Z" fill="white"/>
<path d="M208.818 302.818C208.818 293.567 187.72 307.844 161.693 307.844C135.667 307.844 114.568 295.242 114.568 304.493C114.568 313.745 135.667 341.346 161.693 341.346C187.72 341.346 208.818 312.07 208.818 302.818Z" fill="white"/>
<path d="M167.711 131.707C167.711 159.936 190.595 182.82 218.825 182.82C247.054 182.82 269.938 159.936 269.938 131.707C269.938 103.478 247.054 80.5934 218.825 80.5934C190.595 80.5934 167.711 103.478 167.711 131.707Z" fill="white"/>
<path d="M192.998 159.202C199.241 170.015 219.568 182.149 241.843 169.288C264.118 156.428 264.925 132.092 258.682 121.279C252.44 110.466 255.829 142.07 233.554 154.931C211.279 167.791 186.755 148.389 192.998 159.202Z" fill="#DFECF1"/>
<path d="M184.19 146.567C184.19 157.502 193.055 166.367 203.99 166.367C214.925 166.367 223.79 157.502 223.79 146.567C223.79 135.632 214.925 126.767 203.99 126.767C193.055 126.767 184.19 135.632 184.19 146.567Z" fill="black"/>
<path d="M188.59 152.068C188.59 157.535 193.022 161.968 198.49 161.968C203.957 161.968 208.39 157.535 208.39 152.068C208.39 146.6 203.957 142.168 198.49 142.168C193.022 142.168 188.59 146.6 188.59 152.068Z" fill="white"/>
<path fill-rule="evenodd" clip-rule="evenodd" d="M218.825 176.225C194.238 176.225 174.306 156.293 174.306 131.707C174.306 107.12 194.238 87.1887 218.825 87.1887C243.411 87.1887 263.343 107.12 263.343 131.707C263.343 156.293 243.411 176.225 218.825 176.225ZM218.825 182.82C190.595 182.82 167.711 159.936 167.711 131.707C167.711 103.478 190.595 80.5934 218.825 80.5934C247.054 80.5934 269.938 103.478 269.938 131.707C269.938 159.936 247.054 182.82 218.825 182.82Z" fill="black"/>
<path d="M161.116 131.707C161.116 159.936 138.232 182.82 110.003 182.82C81.7734 182.82 58.8892 159.936 58.8892 131.707C58.8892 103.478 81.7734 80.5934 110.003 80.5934C138.232 80.5934 161.116 103.478 161.116 131.707Z" fill="white"/>
<path d="M136.203 158.102C129.96 168.915 109.633 181.049 87.3582 168.188C65.0832 155.328 64.2759 130.992 70.5187 120.179C76.7616 109.366 73.3726 140.97 95.6476 153.831C117.923 166.691 142.446 147.289 136.203 158.102Z" fill="#DFECF1"/>
<path d="M145.24 147.18C145.24 158.115 136.375 166.98 125.44 166.98C114.505 166.98 105.64 158.115 105.64 147.18C105.64 136.245 114.505 127.38 125.44 127.38C136.375 127.38 145.24 136.245 145.24 147.18Z" fill="black"/>
<path d="M139.74 151.58C139.74 157.048 135.308 161.48 129.84 161.48C124.372 161.48 119.94 157.048 119.94 151.58C119.94 146.112 124.372 141.68 129.84 141.68C135.308 141.68 139.74 146.112 139.74 151.58Z" fill="white"/>
<path fill-rule="evenodd" clip-rule="evenodd" d="M110.003 176.225C134.589 176.225 154.521 156.293 154.521 131.707C154.521 107.12 134.589 87.1887 110.003 87.1887C85.4159 87.1887 65.4844 107.12 65.4844 131.707C65.4844 156.293 85.4159 176.225 110.003 176.225ZM110.003 182.82C138.232 182.82 161.116 159.936 161.116 131.707C161.116 103.478 138.232 80.5934 110.003 80.5934C81.7734 80.5934 58.8892 103.478 58.8892 131.707C58.8892 159.936 81.7734 182.82 110.003 182.82Z" fill="black"/>
<path fill-rule="evenodd" clip-rule="evenodd" d="M92.8171 44.1261C82.4846 50.4684 72.3601 61.7205 66.204 70.2891C64.61 72.5077 61.5193 73.0141 59.3007 71.4201C57.082 69.8261 56.5757 66.7354 58.1697 64.5168C64.6967 55.432 75.7278 43.0079 87.6418 35.6949C93.5969 32.0395 100.246 29.3664 106.948 29.4838C113.951 29.6065 120.376 32.7678 125.482 39.4877C127.135 41.6627 126.712 44.7659 124.537 46.4188C122.362 48.0718 119.259 47.6486 117.606 45.4735C114.19 40.9783 110.518 39.4408 106.775 39.3752C102.732 39.3044 97.9851 40.9538 92.8171 44.1261Z" fill="black"/>
<path fill-rule="evenodd" clip-rule="evenodd" d="M229.415 44.1261C239.747 50.4684 249.872 61.7205 256.028 70.2891C257.622 72.5077 260.713 73.0141 262.931 71.4201C265.15 69.8261 265.656 66.7354 264.062 64.5168C257.535 55.432 246.504 43.0079 234.59 35.6949C228.635 32.0395 221.986 29.3664 215.283 29.4838C208.281 29.6065 201.856 32.7678 196.749 39.4877C195.096 41.6627 195.52 44.7659 197.695 46.4188C199.87 48.0718 202.973 47.6486 204.626 45.4735C208.042 40.9783 211.713 39.4408 215.457 39.3752C219.5 39.3044 224.247 40.9538 229.415 44.1261Z" fill="black"/>
</svg>
