<svg width="248" height="274" viewBox="0 0 248 274" fill="none" xmlns="http://www.w3.org/2000/svg">
<path fill-rule="evenodd" clip-rule="evenodd" d="M75.2389 196.052C76.4633 196.234 77.3098 197.381 77.1297 198.614C76.5588 202.523 76.9759 209.153 78.9445 215.831C80.9156 222.518 84.3257 228.859 89.4137 232.576C90.4156 233.308 90.6389 234.719 89.9124 235.729C89.186 236.738 87.7849 236.963 86.783 236.231C80.5691 231.692 76.7585 224.274 74.6484 217.116C72.5358 209.949 72.0109 202.648 72.6959 197.957C72.876 196.724 74.0145 195.871 75.2389 196.052Z" fill="black"/>
<path fill-rule="evenodd" clip-rule="evenodd" d="M168.181 196.052C166.956 196.234 166.11 197.381 166.29 198.614C166.861 202.523 166.444 209.153 164.475 215.831C162.504 222.518 159.094 228.859 154.006 232.576C153.004 233.308 152.781 234.719 153.507 235.729C154.233 236.738 155.635 236.963 156.636 236.231C162.85 231.692 166.661 224.274 168.771 217.116C170.884 209.949 171.408 202.648 170.724 197.957C170.543 196.724 169.405 195.871 168.181 196.052Z" fill="black"/>
<path d="M83.6167 180.227C83.6167 159.033 100.671 141.852 121.71 141.852C142.748 141.852 159.803 159.033 159.803 180.227V200.543C159.803 221.737 142.748 238.918 121.71 238.918C100.671 238.918 83.6167 221.737 83.6167 200.543V180.227Z" fill="black"/>
<path d="M90.3392 213.523C90.3392 219.311 104.886 220.859 122.83 220.859C140.775 220.859 155.321 218.263 155.321 212.475C155.321 206.686 140.775 191.513 122.83 191.513C104.886 191.513 90.3392 207.734 90.3392 213.523Z" fill="#DE3D3D"/>
<path d="M155.321 167.08C155.321 172.596 140.774 164.084 122.83 164.084C104.886 164.084 90.3389 171.598 90.3389 166.082C90.3389 160.566 104.886 144.109 122.83 144.109C140.774 144.109 155.321 161.564 155.321 167.08Z" fill="white"/>
<path d="M155.321 211.432C155.321 205.916 140.774 214.429 122.83 214.429C104.886 214.429 90.3389 206.915 90.3389 212.431C90.3389 217.947 104.886 234.404 122.83 234.404C140.774 234.404 155.321 216.948 155.321 211.432Z" fill="white"/>
<path d="M126.979 104.341C126.979 123.802 142.757 139.578 162.22 139.578C181.683 139.578 197.461 123.802 197.461 104.341C197.461 84.8801 181.683 69.1039 162.22 69.1039C142.757 69.1039 126.979 84.8801 126.979 104.341Z" fill="white"/>
<path d="M136.074 109.899C136.074 118.507 144.028 132.758 161.762 132.758C179.495 132.758 188.367 118.507 188.367 109.899C188.367 101.292 179.495 121.329 161.762 121.329C144.028 121.329 136.074 101.292 136.074 109.899Z" fill="#DFECF1"/>
<path d="M147.442 104.341C147.442 109.991 152.023 114.571 157.673 114.571C163.324 114.571 167.904 109.991 167.904 104.341C167.904 98.6907 163.324 94.1105 157.673 94.1105C152.023 94.1105 147.442 98.6907 147.442 104.341Z" fill="black"/>
<path d="M151.989 104.341C151.989 106.224 153.516 107.751 155.4 107.751C157.283 107.751 158.81 106.224 158.81 104.341C158.81 102.458 157.283 100.931 155.4 100.931C153.516 100.931 151.989 102.458 151.989 104.341Z" fill="white"/>
<path fill-rule="evenodd" clip-rule="evenodd" d="M162.22 135.032C145.269 135.032 131.527 121.291 131.527 104.341C131.527 87.3912 145.269 73.6506 162.22 73.6506C179.172 73.6506 192.914 87.3912 192.914 104.341C192.914 121.291 179.172 135.032 162.22 135.032ZM162.22 139.578C142.757 139.578 126.979 123.802 126.979 104.341C126.979 84.8801 142.757 69.1039 162.22 69.1039C181.683 69.1039 197.461 84.8801 197.461 104.341C197.461 123.802 181.683 139.578 162.22 139.578Z" fill="black"/>
<path d="M122.432 104.341C122.432 123.802 106.654 139.578 87.1915 139.578C67.7285 139.578 51.9507 123.802 51.9507 104.341C51.9507 84.8801 67.7285 69.1039 87.1915 69.1039C106.654 69.1039 122.432 84.8801 122.432 104.341Z" fill="white"/>
<path d="M113.338 109.899C113.338 118.507 105.384 132.758 87.65 132.758C69.9164 132.758 61.0449 118.507 61.0449 109.899C61.0449 101.292 69.9164 121.329 87.65 121.329C105.384 121.329 113.338 101.292 113.338 109.899Z" fill="#DFECF1"/>
<path d="M101.97 104.341C101.97 109.991 97.3891 114.571 91.7385 114.571C86.088 114.571 81.5073 109.991 81.5073 104.341C81.5073 98.6907 86.088 94.1105 91.7385 94.1105C97.3891 94.1105 101.97 98.6907 101.97 104.341Z" fill="black"/>
<path d="M97.4224 104.341C97.4224 106.224 95.8955 107.751 94.012 107.751C92.1285 107.751 90.6016 106.224 90.6016 104.341C90.6016 102.458 92.1285 100.931 94.012 100.931C95.8955 100.931 97.4224 102.458 97.4224 104.341Z" fill="white"/>
<path fill-rule="evenodd" clip-rule="evenodd" d="M87.1915 135.032C104.143 135.032 117.885 121.291 117.885 104.341C117.885 87.3912 104.143 73.6506 87.1915 73.6506C70.2399 73.6506 56.4979 87.3912 56.4979 104.341C56.4979 121.291 70.2399 135.032 87.1915 135.032ZM87.1915 139.578C106.654 139.578 122.432 123.802 122.432 104.341C122.432 84.8801 106.654 69.1039 87.1915 69.1039C67.7285 69.1039 51.9507 84.8801 51.9507 104.341C51.9507 123.802 67.7285 139.578 87.1915 139.578Z" fill="black"/>
<path fill-rule="evenodd" clip-rule="evenodd" d="M75.3426 43.9635C68.2187 48.3359 61.2383 56.093 56.9938 62.0001C55.8948 63.5296 53.7639 63.8787 52.2342 62.7798C50.7046 61.681 50.3555 59.5502 51.4545 58.0207C55.9546 51.7578 63.5602 43.1927 71.7744 38.1511C75.8802 35.6311 80.4643 33.7883 85.0857 33.8692C89.9138 33.9538 94.3432 36.1332 97.8642 40.7658C99.0038 42.2653 98.7121 44.4046 97.2125 45.5441C95.7129 46.6837 93.5733 46.3919 92.4337 44.8925C90.0783 41.7935 87.547 40.7335 84.9662 40.6883C82.1787 40.6395 78.9058 41.7766 75.3426 43.9635Z" fill="black"/>
<path fill-rule="evenodd" clip-rule="evenodd" d="M169.522 43.9635C176.646 48.3359 183.626 56.093 187.87 62.0001C188.969 63.5296 191.1 63.8787 192.63 62.7798C194.16 61.681 194.509 59.5502 193.41 58.0207C188.91 51.7578 181.304 43.1927 173.09 38.1511C168.984 35.6311 164.4 33.7883 159.779 33.8692C154.951 33.9538 150.521 36.1332 147 40.7658C145.86 42.2653 146.152 44.4046 147.652 45.5441C149.151 46.6837 151.291 46.3919 152.431 44.8925C154.786 41.7935 157.317 40.7335 159.898 40.6883C162.686 40.6395 165.959 41.7766 169.522 43.9635Z" fill="black"/>
</svg>
